<svg width="2187" height="897" viewBox="0 0 2187 897" fill="none" xmlns="http://www.w3.org/2000/svg">
<rect width="2187" height="897" rx="100" fill="#DDE3F7"/>
<path d="M660.26 223.296C656.227 221.194 651.981 219.528 647.594 218.326C643.906 217.315 640.135 216.636 636.325 216.299L632.669 215.974C632.156 215.929 631.9 215.906 631.644 215.885C625.051 215.334 618.419 215.439 611.846 216.199C611.591 216.228 611.322 216.261 610.785 216.326C610.258 216.389 609.995 216.421 609.743 216.453C604.121 217.16 598.57 218.345 593.148 219.993C592.906 220.066 592.663 220.141 592.178 220.292L577.19 224.931L559.405 232.802L550.272 237.989L541.139 243.176L522.205 256.518L488.418 283.784L471.319 300.572L464.519 308.06L451.032 323.081L438.954 337.597L421.936 366.403C420.069 369.564 419.135 371.144 418.261 372.756C417.096 374.905 416.009 377.096 415.004 379.325C414.251 380.996 413.558 382.696 412.173 386.096L402.558 409.692L397.514 428.694L395.197 445.567L394.236 473.049L399.105 498.991L406.477 521.973L411.483 532.479C413.111 535.898 413.926 537.607 414.803 539.283C415.973 541.517 417.227 543.705 418.562 545.844C419.563 547.449 420.626 549.016 422.751 552.15L424.728 555.066C426.606 557.836 427.545 559.221 428.529 560.571C430.663 563.503 432.955 566.317 435.396 569C436.52 570.236 437.686 571.436 440.02 573.835L440.874 574.713C442.716 576.608 443.638 577.556 444.582 578.476C448.163 581.97 452.002 585.19 456.065 588.109C457.136 588.878 458.23 589.621 460.416 591.106C462.328 592.404 463.284 593.054 464.254 593.68C467.93 596.054 471.758 598.185 475.713 600.058C476.756 600.552 477.812 601.022 479.923 601.963L496.229 609.229C501.502 611.579 504.139 612.754 506.831 613.772C510.497 615.159 514.241 616.329 518.044 617.276C520.837 617.971 523.673 618.507 529.346 619.577C534.281 620.509 536.748 620.974 539.23 621.315C542.609 621.779 546.011 622.07 549.42 622.186C551.924 622.272 554.434 622.232 559.455 622.152L560.874 622.129C566.383 622.041 569.137 621.997 571.878 621.802C575.532 621.543 579.169 621.082 582.773 620.424C585.476 619.93 588.155 619.286 593.512 618L600.762 616.258L609.607 613.232C613.139 612.024 614.906 611.42 616.646 610.751C618.967 609.859 621.253 608.881 623.501 607.819C625.187 607.023 626.843 606.163 630.157 604.443L634.989 601.935C639.188 599.755 641.288 598.666 643.331 597.48C646.054 595.899 648.7 594.191 651.262 592.36C653.184 590.987 655.042 589.523 658.757 586.593L664.304 582.22L679.071 567.18L682.977 562.293L684.989 559.776C687.788 556.273 689.187 554.522 690.505 552.713C692.262 550.301 693.909 547.812 695.444 545.252C696.594 543.333 697.659 541.36 699.79 537.415L704.387 528.904L711.18 512.234L718.864 486.75L719.149 485.26L723.355 463.204L724.006 458.07L727.392 431.374L728.834 409.285L728.27 381.519L724.231 342.023C723.772 337.54 723.543 335.298 723.213 333.072C722.774 330.104 722.202 327.158 721.498 324.242C720.97 322.055 720.343 319.89 719.089 315.561L715.12 301.852C714.035 298.106 713.492 296.233 712.878 294.385C712.059 291.921 711.145 289.489 710.137 287.096C709.381 285.302 708.554 283.535 706.901 280.003L700.547 266.423C697.9 260.766 694.721 255.374 691.054 250.319L690.109 249.017C685.903 243.22 680.987 237.973 675.476 233.399L674.619 232.687C670.514 229.279 666.058 226.318 661.327 223.852L660.26 223.296Z" fill="#99D2F6"/>
<path d="M552.805 594.034C553.615 592.507 552.674 590.638 550.965 590.379L546.877 589.76C546.211 589.659 545.569 589.436 544.985 589.101L538.506 585.385C536.668 584.331 535.127 582.828 534.027 581.016L533.383 579.955C532.415 578.361 531.982 576.499 532.146 574.641C532.258 573.379 532.642 572.157 533.272 571.058L533.846 570.057C535.027 567.998 536.713 566.272 538.744 565.043L544.751 561.408C548.108 559.886 551.047 557.572 553.315 554.666L556.271 550.878L557.41 549.542C561.339 544.934 565.998 541.002 571.2 537.903L575.375 535.561C577.189 534.544 579.232 534.004 581.313 533.992L581.882 533.989C583.195 533.981 584.495 534.245 585.702 534.762C587.301 535.449 588.683 536.559 589.697 537.974L589.822 538.148C590.333 538.86 590.751 539.634 591.066 540.452L591.087 540.506C591.739 542.198 591.953 544.027 591.71 545.824L591.234 549.337C591.211 549.513 591.147 549.68 591.049 549.828C590.473 550.696 591.233 551.829 592.255 551.625L597.653 550.549C598.133 550.454 598.628 550.461 599.105 550.57L601.444 551.108C604.409 551.79 607.061 553.444 608.977 555.807C609.656 556.644 610.233 557.558 610.696 558.531L610.923 559.007C612.112 561.504 612.713 564.24 612.677 567.005L612.674 567.242C612.649 569.224 612.298 571.189 611.635 573.058C610.649 575.838 608.998 578.335 606.825 580.331L605.891 581.189L600.652 585.209L590.884 590.8C589 591.932 585.032 594.221 584.234 594.319C584.018 594.346 583.744 594.611 583.445 595.016C581.486 597.673 580.124 600.741 578.093 603.344L576.855 604.93C576.42 605.488 575.939 606.009 575.418 606.488C574.531 607.303 573.533 607.99 572.454 608.527L571.168 609.167C569.519 609.988 567.743 610.523 565.916 610.749L564.155 610.966C562.12 611.217 560.057 610.86 558.225 609.941C557.227 609.44 556.317 608.782 555.529 607.991L554.734 607.193C554.262 606.72 553.85 606.192 553.506 605.619C552.734 604.334 552.327 602.862 552.329 601.362L552.334 598.256L552.516 595.066C552.537 594.705 552.635 594.353 552.805 594.034Z" fill="#447AFB" stroke="#447AFB" stroke-width="2.00889"/>
<path d="M552.805 594.034C553.615 592.507 552.674 590.638 550.965 590.379L546.877 589.76C546.211 589.659 545.569 589.436 544.985 589.101L538.506 585.385C536.668 584.331 535.127 582.828 534.027 581.016L533.383 579.955C532.415 578.361 531.982 576.499 532.146 574.641C532.258 573.379 532.642 572.157 533.272 571.058L533.846 570.057C535.027 567.998 536.713 566.272 538.744 565.043L544.751 561.408C548.108 559.886 551.047 557.572 553.315 554.666L556.271 550.878L557.41 549.542C561.339 544.934 565.998 541.002 571.2 537.903L575.375 535.561C577.189 534.544 579.232 534.004 581.313 533.992L581.882 533.989C583.195 533.981 584.495 534.245 585.702 534.762C587.301 535.449 588.683 536.559 589.697 537.974L589.822 538.148C590.333 538.86 590.751 539.634 591.066 540.452L591.087 540.506C591.739 542.198 591.953 544.027 591.71 545.824L591.234 549.337C591.211 549.513 591.147 549.68 591.049 549.828C590.473 550.696 591.233 551.829 592.255 551.625L597.653 550.549C598.133 550.454 598.628 550.461 599.105 550.57L601.444 551.108C604.409 551.79 607.061 553.444 608.977 555.807C609.656 556.644 610.233 557.558 610.696 558.531L610.923 559.007C612.112 561.504 612.713 564.24 612.677 567.005L612.674 567.242C612.649 569.224 612.298 571.189 611.635 573.058C610.649 575.838 608.998 578.335 606.825 580.331L605.891 581.189L600.652 585.209L590.884 590.8C589 591.932 585.032 594.221 584.234 594.319C584.018 594.346 583.744 594.611 583.445 595.016C581.486 597.673 580.124 600.741 578.093 603.344L576.855 604.93C576.42 605.488 575.939 606.009 575.418 606.488C574.531 607.303 573.533 607.99 572.454 608.527L571.168 609.167C569.519 609.988 567.743 610.523 565.916 610.749L564.155 610.966C562.12 611.217 560.057 610.86 558.225 609.941C557.227 609.44 556.317 608.782 555.529 607.991L554.734 607.193C554.262 606.72 553.85 606.192 553.506 605.619C552.734 604.334 552.327 602.862 552.329 601.362L552.334 598.256L552.516 595.066C552.537 594.705 552.635 594.353 552.805 594.034Z" fill="#447AFB" stroke="#447AFB" stroke-width="2.00889"/>
<path d="M587.677 570.279C588.696 578.538 582.828 586.059 574.569 587.078C566.311 588.097 558.79 582.228 557.771 573.97C556.752 565.712 562.62 558.191 570.879 557.172C579.137 556.152 586.658 562.021 587.677 570.279Z" fill="#F7F490"/>
<path d="M557.738 454.378C558.548 452.851 557.607 450.982 555.898 450.723L552.8 450.254C551.524 450.061 550.382 449.355 549.64 448.299L547.419 445.14C546.119 443.292 545.295 441.152 545.018 438.909L544.398 433.889L544.308 433.161C543.984 430.528 545.044 427.915 547.112 426.254C547.575 425.882 548.079 425.566 548.615 425.31L549.93 424.684C551.858 423.766 553.42 422.225 554.364 420.309C554.651 419.728 554.996 419.177 555.395 418.666L561.203 411.222L562.343 409.886C566.272 405.278 570.93 401.346 576.133 398.247L580.308 395.906C582.122 394.888 584.165 394.348 586.245 394.336L586.814 394.333C588.127 394.326 589.428 394.589 590.634 395.107C592.234 395.793 593.616 396.903 594.63 398.318L594.755 398.492C595.266 399.204 595.684 399.979 595.999 400.797L596.02 400.85C596.672 402.542 596.886 404.371 596.643 406.168L596.181 409.575C596.148 409.82 596.06 410.055 595.923 410.262C595.241 411.289 595.894 412.673 597.12 412.8L601.716 413.276C602.763 413.385 603.737 413.862 604.465 414.623L606.191 416.428C607.351 417.642 608.225 419.101 608.747 420.697L609.741 423.737C610.178 425.072 610.484 426.446 610.656 427.84L610.772 428.778C610.957 430.274 610.92 431.789 610.664 433.275L610.426 434.658C610.253 435.665 609.89 436.629 609.356 437.5C608.788 438.428 608.038 439.232 607.151 439.862L606.217 440.526C605.452 441.071 604.744 441.692 604.106 442.381L600.601 446.168C597.426 449.471 593.985 452.672 589.768 454.463C589.502 454.576 589.294 454.648 589.167 454.663C588.951 454.69 588.677 454.955 588.378 455.36C586.419 458.018 585.057 461.086 583.025 463.689L581.788 465.274C581.353 465.832 580.872 466.353 580.351 466.832C579.463 467.647 578.465 468.334 577.387 468.871L576.101 469.512C574.452 470.333 572.676 470.867 570.848 471.093L569.087 471.31C567.053 471.561 564.99 471.205 563.158 470.285C562.16 469.784 561.25 469.126 560.462 468.336L559.666 467.537C559.195 467.064 558.783 466.536 558.439 465.964C557.666 464.678 557.26 463.206 557.262 461.707L557.267 458.6L557.449 455.411C557.47 455.05 557.568 454.697 557.738 454.378Z" fill="#447AFB" stroke="#447AFB" stroke-width="2.00889"/>
<path d="M592.528 429.959C593.547 438.218 587.679 445.739 579.42 446.758C571.162 447.777 563.641 441.908 562.622 433.65C561.603 425.391 567.471 417.87 575.73 416.851C583.988 415.832 591.509 421.701 592.528 429.959Z" fill="#F7F490"/>
<path d="M650.485 315.977C651.295 314.45 650.354 312.581 648.645 312.322L645.547 311.853C644.271 311.66 643.13 310.954 642.387 309.898L640.166 306.739C638.867 304.89 638.042 302.751 637.765 300.508L637.146 295.488L637.056 294.759C636.731 292.127 637.792 289.514 639.859 287.853C640.322 287.481 640.827 287.164 641.363 286.909L642.677 286.283C644.605 285.365 646.168 283.824 647.112 281.908C647.398 281.327 647.744 280.776 648.143 280.265L653.951 272.821L655.09 271.485C659.019 266.877 663.678 262.945 668.88 259.846L673.055 257.504C674.87 256.487 676.913 255.947 678.993 255.935L679.562 255.932C680.875 255.924 682.175 256.188 683.382 256.706C684.982 257.392 686.363 258.502 687.378 259.917L687.503 260.091C688.013 260.803 688.431 261.578 688.746 262.395L688.767 262.449C689.419 264.141 689.633 265.97 689.39 267.767L688.929 271.174C688.896 271.419 688.807 271.654 688.67 271.861C687.989 272.888 688.642 274.271 689.868 274.399L694.464 274.875C695.511 274.984 696.485 275.461 697.212 276.222L698.938 278.027C700.099 279.241 700.972 280.7 701.494 282.296L702.489 285.335C702.925 286.671 703.232 288.045 703.404 289.439L703.52 290.377C703.704 291.873 703.668 293.388 703.412 294.874L703.174 296.257C703 297.264 702.637 298.228 702.104 299.099C701.536 300.027 700.786 300.83 699.899 301.461L698.964 302.125C698.199 302.67 697.492 303.291 696.854 303.98L693.348 307.767C690.173 311.07 686.733 314.27 682.516 316.062C682.249 316.175 682.042 316.247 681.915 316.262C681.698 316.289 681.424 316.554 681.126 316.959C679.166 319.616 677.804 322.685 675.773 325.288L674.536 326.873C674.1 327.431 673.62 327.952 673.098 328.431C672.211 329.246 671.213 329.933 670.134 330.47L668.848 331.111C667.2 331.932 665.424 332.466 663.596 332.692L661.835 332.909C659.8 333.16 657.737 332.803 655.905 331.884C654.908 331.383 653.998 330.725 653.21 329.935L652.414 329.136C651.942 328.663 651.53 328.135 651.186 327.562C650.414 326.277 650.007 324.805 650.009 323.306L650.014 320.199L650.197 317.01C650.217 316.649 650.316 316.296 650.485 315.977Z" fill="#447AFB" stroke="#447AFB" stroke-width="2.00889"/>
<path d="M685.276 291.558C686.295 299.816 680.426 307.337 672.168 308.356C663.909 309.375 656.388 303.507 655.369 295.248C654.35 286.99 660.219 279.469 668.477 278.45C676.736 277.431 684.257 283.299 685.276 291.558Z" fill="#F7F490"/>
<path d="M494.22 369.113C495.24 377.372 489.371 384.893 481.113 385.912C472.854 386.931 465.333 381.062 464.314 372.804C463.295 364.545 469.164 357.024 477.422 356.005C485.68 354.986 493.201 360.855 494.22 369.113Z" fill="#F7F490"/>
<path d="M536.521 524.099C537.54 532.358 531.671 539.879 523.413 540.898C515.154 541.917 507.633 536.048 506.614 527.79C505.595 519.531 511.464 512.011 519.722 510.991C527.981 509.972 535.502 515.841 536.521 524.099Z" fill="#F7F490"/>
<path d="M665.394 523.31C666.413 531.568 660.545 539.089 652.286 540.108C644.028 541.127 636.507 535.259 635.488 527C634.469 518.742 640.337 511.221 648.596 510.202C656.854 509.183 664.375 515.051 665.394 523.31Z" fill="#F7F490"/>
<path d="M677.532 376.719C678.551 384.978 672.682 392.499 664.424 393.518C656.166 394.537 648.645 388.668 647.626 380.41C646.606 372.152 652.475 364.631 660.733 363.612C668.992 362.592 676.513 368.461 677.532 376.719Z" fill="#F7F490"/>
<path d="M641.639 439.031C643.67 438.866 644.929 436.744 644.1 434.883L642.598 431.509C641.98 430.119 641.956 428.537 642.533 427.13L644.259 422.918C645.269 420.454 646.871 418.276 648.921 416.578L653.513 412.774L654.179 412.223C656.586 410.229 659.854 409.622 662.816 410.621C663.48 410.844 664.115 411.144 664.709 411.514L666.165 412.422C668.301 413.753 670.823 414.325 673.325 414.046C674.084 413.962 674.85 413.955 675.611 414.026L686.691 415.067L688.741 415.349C695.811 416.325 702.673 418.453 709.054 421.651L714.031 424.309C716.193 425.465 718.027 427.15 719.359 429.208L719.724 429.771C720.565 431.07 721.129 432.529 721.382 434.056C721.716 436.08 721.491 438.157 720.73 440.062L720.637 440.297C720.254 441.256 719.75 442.163 719.139 442.995L719.098 443.05C717.832 444.772 716.152 446.146 714.214 447.046L710.538 448.751C710.273 448.874 709.984 448.935 709.692 448.93C708.239 448.906 707.28 450.433 707.932 451.731L710.378 456.597C710.935 457.705 711.08 458.976 710.786 460.181L710.089 463.042C709.621 464.965 708.727 466.758 707.474 468.29L705.087 471.208C704.039 472.489 702.869 473.666 701.594 474.722L700.737 475.433C699.368 476.566 697.841 477.492 696.203 478.182L694.678 478.823C693.569 479.29 692.381 479.542 691.177 479.566C689.895 479.591 688.621 479.357 687.432 478.876L686.179 478.37C685.152 477.956 684.086 477.649 682.997 477.453L677.011 476.377C671.715 475.321 666.352 473.938 661.895 470.888C661.613 470.696 661.411 470.535 661.315 470.419C661.151 470.221 660.714 470.117 660.122 470.078C656.239 469.82 652.328 470.416 648.453 470.052L646.093 469.83C645.263 469.752 644.44 469.606 643.634 469.392C642.26 469.029 640.945 468.474 639.727 467.744L638.274 466.874C636.412 465.758 634.753 464.334 633.369 462.663L632.035 461.052C630.493 459.192 629.537 456.916 629.287 454.513C629.151 453.205 629.226 451.883 629.511 450.599L629.798 449.302C629.968 448.534 630.231 447.789 630.581 447.084C631.367 445.501 632.57 444.162 634.061 443.212L637.148 441.244L640.431 439.4C640.802 439.191 641.215 439.065 641.639 439.031Z" fill="#447AFB" stroke="#447AFB" stroke-width="2.36771"/>
<path d="M687.979 458.068C680.426 464.324 669.231 463.273 662.975 455.72C656.719 448.168 657.77 436.973 665.323 430.717C672.876 424.461 684.07 425.512 690.326 433.065C696.582 440.617 695.531 451.812 687.979 458.068Z" fill="#F7F490"/>
<path d="M677.532 376.719C678.551 384.978 672.682 392.499 664.424 393.518C656.166 394.537 648.645 388.668 647.626 380.41C646.606 372.152 652.475 364.631 660.733 363.612C668.992 362.592 676.513 368.461 677.532 376.719Z" fill="#F7F490"/>
<path d="M534.182 351.347C535.392 349.067 533.987 346.276 531.435 345.889L525.329 344.965C524.335 344.815 523.377 344.481 522.504 343.98L512.829 338.431C510.084 336.857 507.783 334.612 506.14 331.907L505.178 330.323C503.733 327.942 503.086 325.161 503.331 322.386C503.498 320.502 504.072 318.677 505.013 317.036L505.87 315.542C507.634 312.466 510.151 309.889 513.185 308.053L522.154 302.625C527.169 300.352 531.557 296.897 534.944 292.556L539.358 286.9L541.059 284.904C546.927 278.023 553.884 272.151 561.653 267.523L567.888 264.026C570.597 262.507 573.648 261.701 576.755 261.683L577.604 261.678C579.565 261.667 581.507 262.06 583.309 262.833C585.698 263.858 587.761 265.517 589.276 267.629L589.463 267.889C590.226 268.953 590.85 270.109 591.32 271.33L591.351 271.411C592.325 273.938 592.645 276.669 592.281 279.352L591.571 284.599C591.536 284.861 591.442 285.111 591.295 285.332C590.435 286.629 591.569 288.32 593.096 288.016L601.157 286.409C601.874 286.266 602.613 286.277 603.325 286.441L606.818 287.244C611.246 288.262 615.206 290.732 618.068 294.261C619.082 295.511 619.943 296.876 620.635 298.329L620.974 299.04C622.75 302.768 623.646 306.854 623.594 310.984L623.589 311.337C623.551 314.297 623.027 317.232 622.037 320.022C620.564 324.174 618.098 327.903 614.854 330.884L613.46 332.165L605.636 338.168L591.049 346.518C588.235 348.208 582.309 351.626 581.118 351.773C580.795 351.813 580.386 352.209 579.94 352.814C577.013 356.782 574.979 361.364 571.946 365.252L570.098 367.619C569.448 368.453 568.73 369.231 567.952 369.946C566.627 371.163 565.136 372.188 563.525 372.991L561.605 373.947C559.143 375.173 556.491 375.972 553.761 376.309L551.131 376.633C548.093 377.008 545.012 376.475 542.276 375.102C540.787 374.354 539.427 373.371 538.251 372.191L537.062 370.999C536.358 370.293 535.743 369.503 535.229 368.649C534.076 366.729 533.468 364.531 533.472 362.292L533.479 357.652L533.751 352.889C533.782 352.35 533.929 351.824 534.182 351.347Z" fill="#447AFB" stroke="#447AFB" stroke-width="3"/>
<path d="M586.259 315.873C587.781 328.206 579.017 339.438 566.685 340.96C554.352 342.482 543.12 333.718 541.598 321.385C540.076 309.052 548.84 297.82 561.173 296.299C573.506 294.777 584.738 303.541 586.259 315.873Z" fill="#F7F490"/>
<path d="M438.689 500.163C439.899 497.883 438.494 495.091 435.942 494.705L429.837 493.781C428.842 493.63 427.884 493.296 427.012 492.796L417.336 487.247C414.591 485.673 412.29 483.428 410.647 480.723L409.686 479.138C408.24 476.757 407.593 473.977 407.839 471.202C408.005 469.318 408.579 467.492 409.52 465.852L410.377 464.357C412.141 461.281 414.658 458.704 417.692 456.869L426.662 451.441C431.676 449.167 436.064 445.712 439.451 441.372L443.865 435.715L445.567 433.72C451.434 426.839 458.391 420.967 466.16 416.339L472.395 412.842C475.104 411.323 478.155 410.516 481.262 410.499L482.112 410.494C484.072 410.483 486.014 410.876 487.816 411.649C490.205 412.674 492.269 414.332 493.783 416.445L493.97 416.705C494.733 417.769 495.357 418.925 495.828 420.146L495.858 420.226C496.832 422.753 497.152 425.485 496.789 428.168L496.079 433.415C496.043 433.677 495.949 433.927 495.803 434.147C494.942 435.444 496.076 437.135 497.603 436.831L505.664 435.225C506.381 435.082 507.12 435.093 507.833 435.256L511.325 436.059C515.754 437.077 519.714 439.548 522.576 443.077C523.589 444.326 524.451 445.692 525.143 447.145L525.481 447.855C527.257 451.584 528.153 455.67 528.101 459.8L528.096 460.152C528.059 463.113 527.534 466.047 526.545 468.838C525.072 472.99 522.606 476.719 519.361 479.699L517.967 480.98L510.143 486.984L495.556 495.333C492.742 497.024 486.816 500.442 485.625 500.589C485.302 500.629 484.893 501.024 484.447 501.629C481.521 505.598 479.487 510.18 476.453 514.067L474.606 516.435C473.955 517.268 473.238 518.046 472.459 518.761C471.134 519.979 469.644 521.004 468.033 521.806L466.112 522.763C463.65 523.989 460.998 524.787 458.269 525.124L455.639 525.449C452.6 525.824 449.519 525.291 446.783 523.918C445.294 523.17 443.935 522.187 442.758 521.007L441.57 519.815C440.866 519.108 440.25 518.319 439.736 517.464C438.583 515.545 437.975 513.347 437.979 511.107L437.986 506.468L438.258 501.705C438.289 501.166 438.436 500.64 438.689 500.163Z" fill="#447AFB" stroke="#447AFB" stroke-width="3"/>
<path d="M490.767 464.689C492.289 477.022 483.525 488.253 471.192 489.775C458.859 491.297 447.627 482.533 446.106 470.2C444.584 457.868 453.348 446.636 465.68 445.114C478.013 443.592 489.245 452.356 490.767 464.689Z" fill="#F7F490"/>
<path d="M427.266 482.054L425.157 461.083L423.9 454.954L404.57 488.532C403.068 491.142 402.317 492.447 401.31 493.423C399.968 494.724 398.288 495.623 396.46 496.018C395.09 496.314 393.587 496.215 390.582 496.016L341.017 492.744C338.043 492.548 336.556 492.45 335.196 492.74C333.384 493.126 331.715 494.009 330.375 495.289C329.37 496.249 328.614 497.534 327.102 500.103L314.545 521.437L301.976 542.793C300.468 545.355 299.713 546.637 298.711 547.595C297.375 548.873 295.711 549.756 293.904 550.145C292.548 550.437 291.064 550.343 288.096 550.154L239.076 547.035C236.104 546.846 234.618 546.751 233.261 547.044C231.451 547.434 229.785 548.32 228.449 549.601C227.446 550.562 226.693 551.846 225.186 554.415L200.663 596.217C199.163 598.773 198.413 600.051 197.416 601.009C196.087 602.286 194.43 603.171 192.63 603.566C191.279 603.862 189.8 603.775 186.842 603.601L150.062 601.432L170.568 619.754L196.488 621.897C199.515 622.148 201.029 622.273 202.414 621.995C204.261 621.624 205.966 620.739 207.331 619.442C208.356 618.469 209.124 617.159 210.662 614.539L235.094 572.892C236.591 570.34 237.339 569.064 238.334 568.107C239.661 566.832 241.314 565.947 243.112 565.55C244.46 565.253 245.936 565.337 248.89 565.506L297.823 568.309C300.765 568.478 302.235 568.562 303.579 568.267C305.37 567.873 307.019 566.995 308.344 565.728C309.339 564.777 310.089 563.509 311.589 560.974L336.575 518.761C338.076 516.225 338.826 514.958 339.82 514.007C341.146 512.74 342.795 511.861 344.586 511.468C345.93 511.173 347.4 511.257 350.341 511.426L399.193 514.224C402.171 514.394 403.661 514.48 405.018 514.177C406.828 513.774 408.49 512.876 409.819 511.583C410.815 510.613 411.56 509.321 413.049 506.736L427.266 482.054Z" fill="#F490F7"/>
<path d="M193.62 632.611L215.999 641.649L227.276 644.525C230.946 645.461 232.78 645.929 234.629 646.327C237.094 646.857 239.579 647.294 242.077 647.636C243.95 647.893 245.835 648.079 249.603 648.451L253.109 648.798C256.439 649.126 258.104 649.291 259.772 649.399C263.391 649.635 267.02 649.674 270.643 649.515C272.312 649.442 273.98 649.313 277.317 649.055L278.538 648.961C281.174 648.757 282.492 648.655 283.803 648.519C288.78 648.002 293.71 647.112 298.554 645.857C299.83 645.526 301.1 645.161 303.641 644.43C305.862 643.792 306.973 643.473 308.074 643.128C312.251 641.822 316.338 640.244 320.308 638.402C321.355 637.917 322.392 637.407 324.466 636.386L340.483 628.504C345.662 625.955 348.252 624.68 350.758 623.263C354.169 621.333 357.463 619.204 360.625 616.887C362.946 615.186 365.173 613.349 369.625 609.674C373.498 606.478 375.435 604.88 377.285 603.19C379.804 600.89 382.203 598.462 384.474 595.916C386.142 594.047 387.717 592.092 390.868 588.182L391.759 587.077C395.216 582.787 396.944 580.642 398.548 578.411C400.687 575.437 402.661 572.347 404.46 569.156C405.81 566.763 407.029 564.293 409.468 559.353L412.769 552.666L416.103 543.933C417.434 540.445 418.1 538.701 418.7 536.936C419.499 534.582 420.21 532.199 420.832 529.792C421.299 527.986 421.698 526.163 422.496 522.516L423.661 517.198C424.673 512.576 425.179 510.265 425.574 507.937C426.102 504.833 426.482 501.706 426.715 498.566C426.889 496.21 426.952 493.846 427.078 489.115L427.266 482.054L413.049 506.736C411.56 509.321 410.815 510.613 409.819 511.583C408.49 512.876 406.828 513.774 405.018 514.177C403.661 514.48 402.171 514.394 399.193 514.224L350.341 511.426C347.4 511.257 345.93 511.173 344.586 511.468C342.795 511.861 341.146 512.74 339.82 514.007C338.826 514.958 338.076 516.225 336.575 518.761L311.589 560.974C310.089 563.509 309.339 564.777 308.344 565.728C307.019 566.995 305.37 567.873 303.579 568.267C302.235 568.562 300.765 568.478 297.823 568.309L248.89 565.506C245.936 565.337 244.46 565.253 243.112 565.55C241.314 565.947 239.661 566.832 238.334 568.107C237.339 569.064 236.591 570.34 235.094 572.892L210.662 614.539C209.124 617.159 208.356 618.469 207.331 619.442C205.966 620.739 204.261 621.624 202.414 621.995C201.029 622.273 199.515 622.148 196.488 621.897L170.568 619.754L193.62 632.611Z" fill="#99D2F6"/>
<path d="M91.656 480.151L95.0835 498.72L106.333 530.23C107.567 533.688 108.184 535.416 108.864 537.119C109.77 539.39 110.758 541.627 111.828 543.825C112.63 545.474 113.494 547.094 115.22 550.334L127.202 572.821L138.578 588.855L150.062 601.432L186.842 603.601C189.8 603.775 191.279 603.862 192.63 603.566C194.43 603.171 196.087 602.286 197.416 601.009C198.413 600.051 199.163 598.773 200.663 596.217L225.186 554.415C226.693 551.846 227.446 550.562 228.449 549.601C229.785 548.32 231.451 547.434 233.261 547.044C234.618 546.751 236.104 546.846 239.076 547.035L288.096 550.154C291.064 550.343 292.548 550.437 293.904 550.145C295.711 549.756 297.375 548.873 298.711 547.595C299.713 546.637 300.468 545.355 301.976 542.793L314.545 521.437L327.102 500.103C328.614 497.534 329.37 496.249 330.375 495.289C331.715 494.009 333.384 493.126 335.196 492.74C336.556 492.45 338.043 492.548 341.017 492.744L390.582 496.016C393.587 496.215 395.09 496.314 396.46 496.018C398.288 495.623 399.968 494.724 401.31 493.423C402.317 492.447 403.068 491.142 404.57 488.532L423.9 454.954L423.253 451.798C422.352 447.406 421.901 445.21 421.354 443.04C420.624 440.146 419.766 437.287 418.78 434.47C418.041 432.358 417.207 430.277 415.538 426.116L411.939 417.137L403.474 401.251L388.806 379.039L387.843 377.868L297.506 370.352C294.45 370.098 292.921 369.971 291.525 370.254C289.664 370.631 287.948 371.531 286.579 372.848C285.553 373.835 284.788 375.165 283.259 377.824L258.829 420.31C257.335 422.909 256.587 424.208 255.586 425.182C254.251 426.48 252.58 427.38 250.762 427.78C249.398 428.08 247.902 427.988 244.909 427.805L196.518 424.844C193.585 424.665 192.118 424.575 190.777 424.863C188.988 425.248 187.338 426.116 186.009 427.373C185.011 428.316 184.255 429.575 182.742 432.094L157.414 474.271C155.957 476.697 155.228 477.911 154.27 478.832C152.994 480.059 151.414 480.926 149.693 481.343C148.402 481.656 146.987 481.618 144.157 481.543L91.656 480.151Z" fill="#99D2F6"/>
<path d="M144.157 481.543C146.987 481.618 148.402 481.656 149.693 481.343C151.414 480.926 152.994 480.059 154.27 478.832C155.228 477.911 155.957 476.697 157.414 474.271L182.742 432.094C184.255 429.575 185.011 428.316 186.009 427.373C187.338 426.116 188.988 425.248 190.777 424.863C192.118 424.575 193.585 424.665 196.518 424.844L244.909 427.805C247.902 427.988 249.398 428.08 250.762 427.78C252.58 427.38 254.251 426.48 255.586 425.182C256.587 424.208 257.335 422.909 258.829 420.31L283.259 377.824C284.788 375.165 285.553 373.835 286.579 372.848C287.948 371.531 289.664 370.631 291.525 370.254C292.921 369.971 294.45 370.098 297.506 370.352L387.843 377.868L373.583 360.523L370.055 356.738L287.616 352.002C284.635 351.83 283.145 351.745 281.786 352.047C279.975 352.451 278.311 353.351 276.982 354.646C275.985 355.617 275.241 356.911 273.753 359.5L249.255 402.104C247.74 404.737 246.983 406.054 245.967 407.036C244.613 408.345 242.916 409.244 241.073 409.631C239.69 409.922 238.175 409.81 235.146 409.586L186.726 406.009C183.696 405.785 182.182 405.673 180.799 405.963C178.956 406.35 177.259 407.25 175.905 408.559C174.889 409.541 174.132 410.857 172.617 413.491L148.214 455.931C146.697 458.569 145.938 459.889 144.92 460.871C143.563 462.182 141.862 463.081 140.016 463.467C138.63 463.755 137.113 463.64 134.078 463.411L119.297 462.291L88.7415 460.175L91.656 480.151L144.157 481.543Z" fill="#F7F490"/>
<path d="M148.841 255.511C144.645 257.265 140.648 259.462 136.918 262.064C133.781 264.252 130.846 266.716 128.149 269.427L125.56 272.03C125.198 272.395 125.016 272.577 124.836 272.76C120.194 277.475 116.032 282.639 112.41 288.177C112.269 288.391 112.122 288.618 111.829 289.073C111.54 289.518 111.396 289.741 111.26 289.955C108.206 294.728 105.564 299.752 103.362 304.973C103.264 305.207 103.166 305.441 102.971 305.91L96.9465 320.397L91.6157 339.101L89.7588 349.439L87.9019 359.776L86.04 382.864L85.3762 426.275L87.3376 450.158L88.7415 460.175L119.297 462.291L134.078 463.411C137.113 463.64 138.63 463.755 140.016 463.467C141.862 463.081 143.563 462.182 144.92 460.871C145.938 459.889 146.697 458.569 148.214 455.931L172.617 413.491C174.132 410.857 174.889 409.541 175.905 408.559C177.259 407.25 178.956 406.35 180.799 405.963C182.182 405.673 183.696 405.785 186.726 406.009L235.146 409.586C238.175 409.81 239.69 409.922 241.073 409.631C242.916 409.244 244.613 408.345 245.967 407.036C246.983 406.054 247.74 404.737 249.255 402.104L273.753 359.5C275.241 356.911 275.985 355.617 276.982 354.646C278.311 353.351 279.975 352.451 281.786 352.047C283.145 351.745 284.635 351.83 287.616 352.002L370.055 356.738L351.705 337.054L335.652 321.813L313.953 304.481L281.015 282.314C277.276 279.798 275.406 278.539 273.485 277.368C270.924 275.807 268.293 274.362 265.602 273.037C263.583 272.044 261.518 271.14 257.389 269.334L244.314 263.613C240.741 262.05 238.954 261.268 237.141 260.558C234.723 259.61 232.269 258.758 229.785 258.001C227.922 257.434 226.036 256.939 222.264 255.949L207.761 252.143C201.721 250.558 195.543 249.551 189.311 249.135L187.706 249.028C180.56 248.552 173.382 248.972 166.341 250.281L165.246 250.484C160 251.459 154.873 252.988 149.951 255.046L148.841 255.511Z" fill="#99D2F6"/>
<path d="M102.167 377.755C100.481 380.341 101.343 383.813 104.041 385.312L104.373 385.496C106.673 386.773 109.56 386.187 111.18 384.114C113.377 381.303 112.256 377.169 108.94 375.853L108.587 375.713C106.234 374.78 103.549 375.633 102.167 377.755Z" fill="#79377B"/>
<path d="M170.815 339.477C167.916 342.335 168.462 347.153 171.927 349.29C174.579 350.925 178.029 350.368 180.031 347.98L180.244 347.726C182.861 344.605 181.849 339.855 178.186 338.073C175.8 336.912 172.941 337.381 171.051 339.244L170.815 339.477Z" fill="#79377B"/>
<path d="M207.73 320.734C204.894 323.721 205.604 328.575 209.176 330.624C211.72 332.084 214.932 331.614 216.951 329.487C219.786 326.501 219.076 321.647 215.504 319.597C212.961 318.138 209.749 318.607 207.73 320.734Z" fill="#79377B"/>
<path d="M242.452 301.73C240.084 304.554 240.92 308.843 244.176 310.57L245.002 311.008C247.405 312.283 250.372 311.704 252.12 309.62C254.381 306.923 253.718 302.847 250.719 301.005L249.922 300.516C247.475 299.013 244.297 299.53 242.452 301.73Z" fill="#79377B"/>
<path d="M137.515 357.57C135.469 359.306 135.284 362.398 137.109 364.366L137.295 364.567C139.01 366.417 141.877 366.589 143.801 364.956C145.846 363.22 146.031 360.128 144.207 358.16L144.021 357.959C142.306 356.109 139.438 355.937 137.515 357.57Z" fill="#79377B"/>
<path d="M102.167 377.755C100.481 380.341 101.343 383.813 104.041 385.312L104.373 385.496C106.673 386.773 109.56 386.187 111.18 384.114C113.377 381.303 112.256 377.169 108.94 375.853L108.587 375.713C106.234 374.78 103.549 375.633 102.167 377.755Z" stroke="#79377B" stroke-width="3"/>
<path d="M170.815 339.477C167.916 342.335 168.462 347.153 171.927 349.29C174.579 350.925 178.029 350.368 180.031 347.98L180.244 347.726C182.861 344.605 181.849 339.855 178.186 338.073C175.8 336.912 172.941 337.381 171.051 339.244L170.815 339.477Z" stroke="#79377B" stroke-width="3"/>
<path d="M207.73 320.734C204.894 323.721 205.604 328.575 209.176 330.624C211.72 332.084 214.932 331.614 216.951 329.487C219.786 326.501 219.076 321.647 215.504 319.597C212.961 318.138 209.749 318.607 207.73 320.734Z" stroke="#79377B" stroke-width="3"/>
<path d="M242.452 301.73C240.084 304.554 240.92 308.843 244.176 310.57L245.002 311.008C247.405 312.283 250.372 311.704 252.12 309.62C254.381 306.923 253.718 302.847 250.719 301.005L249.922 300.516C247.475 299.013 244.297 299.53 242.452 301.73Z" stroke="#79377B" stroke-width="3"/>
<path d="M137.515 357.57C135.469 359.306 135.284 362.398 137.109 364.366L137.295 364.567C139.01 366.417 141.877 366.589 143.801 364.956C145.846 363.22 146.031 360.128 144.207 358.16L144.021 357.959C142.306 356.109 139.438 355.937 137.515 357.57Z" stroke="#79377B" stroke-width="3"/>
<path d="M118.703 529.722C115.858 534.214 117.151 540.157 121.603 543.063L121.866 543.235C126.145 546.027 131.855 545.039 134.946 540.97C138.683 536.052 136.958 528.943 131.383 526.284L131.1 526.148C126.659 524.03 121.335 525.565 118.703 529.722Z" fill="#B0F8A1"/>
<path d="M238.001 463.067C233.091 468.025 233.771 476.195 239.431 480.275C244.307 483.788 251.076 482.897 254.875 478.24L255.289 477.732C259.703 472.321 258.218 464.243 252.167 460.756C247.71 458.188 242.081 458.945 238.462 462.601L238.001 463.067Z" fill="#B0F8A1"/>
<path d="M302.225 430.703C297.426 435.89 298.386 444.136 304.248 448.082C308.96 451.253 315.279 450.517 319.136 446.349C323.935 441.161 322.975 432.916 317.113 428.97C312.402 425.798 306.082 426.534 302.225 430.703Z" fill="#B0F8A1"/>
<path d="M362.757 397.644C358.762 402.541 359.969 409.832 365.328 413.181L366.644 414.004C371.108 416.794 376.949 415.827 380.276 411.749C384.084 407.081 383.167 400.17 378.273 396.657L377.011 395.752C372.506 392.518 366.263 393.347 362.757 397.644Z" fill="#B0F8A1"/>
<path d="M180.181 494.294C176.791 497.23 176.336 502.323 179.151 505.814L179.831 506.656C182.789 510.324 188.2 510.808 191.762 507.723C195.152 504.786 195.607 499.693 192.792 496.203L192.113 495.36C189.154 491.692 183.743 491.209 180.181 494.294Z" fill="#B0F8A1"/>
<path d="M118.703 529.722C115.858 534.214 117.151 540.157 121.603 543.063L121.866 543.235C126.145 546.027 131.855 545.039 134.946 540.97C138.683 536.052 136.958 528.943 131.383 526.284L131.1 526.148C126.659 524.03 121.335 525.565 118.703 529.722Z" stroke="#B0F8A1" stroke-width="6.08696"/>
<path d="M238.001 463.067C233.091 468.025 233.771 476.195 239.431 480.275C244.307 483.788 251.076 482.897 254.875 478.24L255.289 477.732C259.703 472.321 258.218 464.243 252.167 460.756C247.71 458.188 242.081 458.945 238.462 462.601L238.001 463.067Z" stroke="#B0F8A1" stroke-width="6.08696"/>
<path d="M302.225 430.703C297.426 435.89 298.386 444.136 304.248 448.082C308.96 451.253 315.279 450.517 319.136 446.349C323.935 441.161 322.975 432.916 317.113 428.97C312.402 425.798 306.082 426.534 302.225 430.703Z" stroke="#B0F8A1" stroke-width="6.08696"/>
<path d="M362.757 397.644C358.762 402.541 359.969 409.832 365.328 413.181L366.644 414.004C371.108 416.794 376.949 415.827 380.276 411.749C384.084 407.081 383.167 400.17 378.273 396.657L377.011 395.752C372.506 392.518 366.263 393.347 362.757 397.644Z" stroke="#B0F8A1" stroke-width="6.08696"/>
<path d="M180.181 494.294C176.791 497.23 176.336 502.323 179.151 505.814L179.831 506.656C182.789 510.324 188.2 510.808 191.762 507.723C195.152 504.786 195.607 499.693 192.792 496.203L192.113 495.36C189.154 491.692 183.743 491.209 180.181 494.294Z" stroke="#B0F8A1" stroke-width="6.08696"/>
<path d="M243.855 625.144C242.007 627.681 242.953 631.276 245.812 632.575L246.424 632.853C248.438 633.768 250.814 633.25 252.265 631.58C254.625 628.862 253.424 624.615 249.99 623.536L249.349 623.334C247.319 622.695 245.108 623.424 243.855 625.144Z" fill="#F6F291"/>
<path d="M314.72 588.191C311.617 590.972 312.276 596.002 315.99 597.89C318.349 599.089 321.217 598.579 323.018 596.641L323.204 596.441C326.042 593.388 324.916 588.436 321.038 586.909C318.956 586.09 316.59 586.515 314.923 588.009L314.72 588.191Z" fill="#F6F291"/>
<path d="M352.707 569.953C349.663 572.86 350.486 577.916 354.294 579.708C356.534 580.763 359.193 580.33 360.984 578.62C364.027 575.713 363.204 570.657 359.396 568.865C357.156 567.811 354.497 568.243 352.707 569.953Z" fill="#F6F291"/>
<path d="M388.379 551.591C385.812 554.353 386.751 558.823 390.212 560.32L391.142 560.722C393.252 561.634 395.709 561.119 397.274 559.434C399.733 556.788 398.971 552.524 395.748 550.893L394.844 550.435C392.672 549.337 390.036 549.808 388.379 551.591Z" fill="#F6F291"/>
<path d="M280.229 605.918C278.023 607.632 277.889 610.918 279.948 612.806C281.569 614.293 284.027 614.393 285.765 613.043L285.948 612.901C288.154 611.187 288.289 607.901 286.23 606.013C284.608 604.526 282.15 604.425 280.413 605.775L280.229 605.918Z" fill="#F6F291"/>
<path d="M243.855 625.144C242.007 627.681 242.953 631.276 245.812 632.575L246.424 632.853C248.438 633.768 250.814 633.25 252.265 631.58C254.625 628.862 253.424 624.615 249.99 623.536L249.349 623.334C247.319 622.695 245.108 623.424 243.855 625.144Z" stroke="#F6F291" stroke-width="6.08696"/>
<path d="M314.72 588.191C311.617 590.972 312.276 596.002 315.99 597.89C318.349 599.089 321.217 598.579 323.018 596.641L323.204 596.441C326.042 593.388 324.916 588.436 321.038 586.909C318.956 586.09 316.59 586.515 314.923 588.009L314.72 588.191Z" stroke="#F6F291" stroke-width="6.08696"/>
<path d="M352.707 569.953C349.663 572.86 350.486 577.916 354.294 579.708C356.534 580.763 359.193 580.33 360.984 578.62C364.027 575.713 363.204 570.657 359.396 568.865C357.156 567.811 354.497 568.243 352.707 569.953Z" stroke="#F6F291" stroke-width="6.08696"/>
<path d="M388.379 551.591C385.812 554.353 386.751 558.823 390.212 560.32L391.142 560.722C393.252 561.634 395.709 561.119 397.274 559.434C399.733 556.788 398.971 552.524 395.748 550.893L394.844 550.435C392.672 549.337 390.036 549.808 388.379 551.591Z" stroke="#F6F291" stroke-width="6.08696"/>
<path d="M280.229 605.918C278.023 607.632 277.889 610.918 279.948 612.806C281.569 614.293 284.027 614.393 285.765 613.043L285.948 612.901C288.154 611.187 288.289 607.901 286.23 606.013C284.608 604.526 282.15 604.425 280.413 605.775L280.229 605.918Z" stroke="#F6F291" stroke-width="6.08696"/>
<path d="M269 335L262 349L269.57 354.137C273.482 356.792 278.589 356.902 282.612 354.418L327.168 326.909C331.047 324.515 335.947 324.524 339.816 326.934L384.184 354.566C388.053 356.976 392.953 356.985 396.832 354.591L441.696 326.892C445.56 324.506 450.44 324.506 454.304 326.892L499.219 354.622C503.071 357 507.934 357.008 511.794 354.643L521 349L513.5 332.5L511.777 333.577C507.929 335.982 503.053 336.011 499.177 333.651L454.284 306.325C450.428 303.978 445.581 303.993 441.74 306.365L396.832 334.091C392.953 336.485 388.053 336.476 384.184 334.066L339.772 306.406C335.926 304.011 331.059 303.986 327.189 306.342L282.263 333.688C278.459 336.003 273.644 335.845 270 333.286L269 335Z" fill="white"/>
<path d="M552 440.5L547 423L511.842 444.603C507.957 446.99 503.056 446.97 499.191 444.55L454.368 416.487C450.473 414.048 445.527 414.048 441.632 416.487L396.896 444.496C392.986 446.943 388.02 446.934 384.12 444.471L339.88 416.529C335.98 414.066 331.014 414.057 327.104 416.504L282.409 444.488C278.493 446.939 273.516 446.925 269.614 444.451L235 422.5L233.5 433L232 442L269.821 464.778C273.623 467.068 278.379 467.072 282.186 464.789L327.254 437.748C331.092 435.445 335.893 435.469 339.707 437.811L384.159 465.107C388.043 467.492 392.943 467.47 396.806 465.052L441.676 436.959C445.548 434.535 450.461 434.519 454.348 436.919L499.274 464.656C503.097 467.017 507.919 467.043 511.768 464.726L552 440.5Z" fill="white"/>
<path d="M537.5 559L545.5 539.5L547.273 533.5L512.839 555.035C508.959 557.462 504.036 557.471 500.148 555.057L454.784 526.901C450.931 524.509 446.059 524.494 442.191 526.861L419.5 540.75L396.792 554.649C392.933 557.011 388.073 557.002 384.223 554.625L339.287 526.881C335.432 524.501 330.565 524.495 326.704 526.866L282.264 554.154C278.42 556.514 273.577 556.52 269.728 554.168L236.721 534L246.202 559.813L269.655 574.915C273.533 577.412 278.5 577.465 282.431 575.051L326.748 547.839C330.586 545.482 335.42 545.473 339.267 547.815L384.261 575.202C388.093 577.535 392.907 577.535 396.739 575.202L441.761 547.798C445.593 545.465 450.407 545.465 454.239 547.798L499.177 575.151C503.053 577.511 507.929 577.482 511.777 575.077L537.5 559Z" fill="white"/>
<path d="M232 442L230 461.5V498L232.5 517.5L236.721 534L269.728 554.168C273.577 556.52 278.42 556.514 282.264 554.154L326.704 526.866C330.565 524.495 335.432 524.501 339.287 526.881L384.223 554.625C388.073 557.002 392.933 557.011 396.792 554.649L419.5 540.75L442.191 526.861C446.059 524.494 450.931 524.509 454.784 526.901L500.148 555.057C504.036 557.471 508.959 557.462 512.839 555.035L547.273 533.5L551.695 518.533C551.898 517.846 552.039 517.142 552.116 516.429L554.5 494.5V459L552 440.5L511.768 464.726C507.919 467.043 503.097 467.017 499.274 464.656L454.348 436.919C450.461 434.519 445.548 434.535 441.676 436.959L396.806 465.052C392.943 467.47 388.043 467.492 384.159 465.107L339.707 437.811C335.893 435.469 331.092 435.445 327.254 437.748L282.186 464.789C278.379 467.072 273.623 467.068 269.821 464.778L232 442Z" fill="#B5AAE5"/>
<path d="M392.777 227.62C391.928 227.54 391.073 227.551 390.227 227.653L380.07 228.872C379.358 228.957 378.655 229.106 377.97 229.317L360.701 234.631C359.902 234.876 359.132 235.204 358.402 235.61L342.447 244.474C341.817 244.824 341.22 245.23 340.663 245.687L322 261L308.5 275L302 283.25L295.5 291.5L283 311L270 333.286C273.644 335.845 278.459 336.003 282.263 333.688L327.189 306.342C331.059 303.986 335.926 304.011 339.772 306.406L384.184 334.066C388.053 336.476 392.953 336.485 396.832 334.091L441.74 306.365C445.581 303.993 450.428 303.978 454.284 306.325L499.177 333.651C503.053 336.011 507.929 335.982 511.777 333.577L513.5 332.5L496.442 302.771C496.148 302.258 495.816 301.767 495.449 301.302L472.081 271.735C471.694 271.246 471.27 270.787 470.812 270.364L445.84 247.276C445.281 246.76 444.675 246.298 444.029 245.896L427.782 235.797C426.931 235.268 426.016 234.847 425.06 234.545L408.72 229.385C407.909 229.129 407.073 228.96 406.226 228.881L392.777 227.62Z" fill="#B5AAE5"/>
<path d="M260.5 582L276 600.5L289.752 613.039C291.914 615.01 294.223 616.815 296.657 618.438L311.252 628.168C314.079 630.052 317.065 631.685 320.177 633.046L334.094 639.135C337.689 640.708 341.434 641.911 345.271 642.728L357.955 645.427C361.312 646.141 364.725 646.556 368.155 646.666L402.726 647.781C407.227 647.927 411.729 647.547 416.142 646.651L435.725 642.673C439.565 641.893 443.316 640.726 446.921 639.189L470.782 629.019C471.592 628.674 472.361 628.241 473.075 627.728L491.5 614.5L506.324 601.589C506.774 601.197 507.194 600.772 507.581 600.317L526.263 578.366C526.753 577.79 527.188 577.169 527.561 576.511L537.5 559L511.777 575.077C507.929 577.482 503.053 577.511 499.177 575.151L454.239 547.798C450.407 545.465 445.593 545.465 441.761 547.798L396.739 575.202C392.907 577.535 388.093 577.535 384.261 575.202L339.267 547.815C335.42 545.473 330.586 545.482 326.748 547.839L282.431 575.051C278.5 577.465 273.533 577.412 269.655 574.915L246.202 559.813L260.5 582Z" fill="#233DFF"/>
<path d="M262 349L252.5 371L243 397L236.5 417.5L235 422.5L269.614 444.451C273.516 446.925 278.493 446.939 282.409 444.488L327.104 416.504C331.014 414.057 335.98 414.066 339.88 416.529L384.12 444.471C388.02 446.934 392.986 446.943 396.896 444.496L441.632 416.487C445.527 414.048 450.473 414.048 454.368 416.487L499.191 444.55C503.056 446.97 507.957 446.99 511.842 444.603L547 423L539 395.5L532 374.5L521 349L511.794 354.643C507.934 357.008 503.071 357 499.219 354.622L454.304 326.892C450.44 324.506 445.56 324.506 441.696 326.892L396.832 354.591C392.953 356.985 388.053 356.976 384.184 354.566L339.816 326.934C335.947 324.524 331.047 324.515 327.168 326.909L282.612 354.418C278.589 356.902 273.482 356.792 269.57 354.137L262 349Z" fill="#233DFF"/>
<path d="M831 561.5L860 547.5L900.5 530.5L928.5 521.5L948.698 518.004C952.548 517.338 956.471 517.199 960.358 517.592L992.013 520.793C996.64 521.261 1001.16 522.477 1005.4 524.393L1035.5 538L1050.38 545.852C1052.46 546.949 1054.62 547.873 1056.85 548.617L1083.5 557.5L1114.16 565.165C1119.02 566.379 1123.62 568.432 1127.77 571.231L1129.71 572.539C1138.28 578.319 1144.48 586.992 1147.18 596.97L1148 600M1148 600L1143.77 605.293C1137.59 613.009 1128.25 617.5 1118.37 617.5V617.5C1116.79 617.5 1115.22 617.385 1113.66 617.157L1075 611.5L1017 601.5M1148 600L1168.2 593.139C1172.38 591.722 1176.31 589.67 1179.86 587.057L1201 571.5L1219.82 556.774C1222.6 554.6 1225.63 552.775 1228.85 551.343L1231.53 550.153C1235.47 548.404 1239.73 547.5 1244.03 547.5H1247.8C1252.14 547.5 1256.37 548.936 1259.81 551.585L1261.36 552.774C1265.23 555.754 1267.5 560.364 1267.5 565.252V565.252C1267.5 569.265 1265.97 573.127 1263.21 576.048L1243 597.5L1219 622.392C1217 624.459 1214.81 626.321 1212.44 627.95L1179 651L1130.26 680.339C1128.42 681.445 1126.48 682.423 1124.5 683.243V683.243C1117.05 686.323 1108.79 687.294 1100.84 685.962L1026.5 673.5L969.5 663L930.884 656.695C924.062 655.582 917.072 656.129 910.507 658.29L879.5 668.5M1363 215.5L1343.04 225.276C1340.02 226.753 1336.84 227.873 1333.57 228.61L1326.64 230.167C1321.27 231.378 1315.7 231.542 1310.26 230.652L1291 227.5L1254.5 220.5L1194.5 210L1145.5 201L1138.14 200.079C1129.89 199.049 1121.52 200.43 1114.04 204.055L1109 206.5L1083.5 220.5L1051 240L1026.97 257.798C1024.99 259.263 1023.15 260.896 1021.45 262.678L1003.5 281.5L978.562 307.626C974.415 311.97 972.473 317.966 973.284 323.916L973.483 325.376C974.407 332.151 979.204 337.761 985.754 339.726V339.726C988.54 340.562 991.492 340.688 994.339 340.092L1001.58 338.575C1008.11 337.21 1014.22 334.349 1019.45 330.217L1033 319.5L1050.77 305.535C1052.92 303.849 1055.22 302.371 1057.65 301.121L1070.5 294.5L1075.47 292.398C1080.77 290.156 1086.47 289 1092.22 289H1093M1093 289L1093.97 283C1094.92 277.073 1098.81 272.03 1104.29 269.592V269.592C1107.37 268.225 1110.77 267.76 1114.1 268.249L1143 272.5L1182 278L1226 284.5M1093 289L1094.57 294.579C1096.48 301.372 1100.37 307.444 1105.74 312.02V312.02C1109.21 314.979 1113.23 317.242 1117.55 318.685L1130.5 323L1152 328L1173.39 333.034C1176.12 333.676 1178.79 334.585 1181.34 335.745L1199.5 344L1219.87 355.703C1221.95 356.899 1224.13 357.918 1226.38 358.751L1241.93 364.494C1244.63 365.496 1247.44 366.221 1250.29 366.66L1262.25 368.5C1264.41 368.833 1266.6 369 1268.79 369H1285.87C1289.28 369 1292.67 368.595 1295.99 367.793L1335.11 358.32C1337.37 357.774 1339.57 357.047 1341.71 356.146L1370.5 344L1403.5 327.5M1152 469L1112.61 510.217C1110.65 512.278 1107.35 512.278 1105.39 510.217L1066 469L1045.72 445.985C1041.95 441.711 1039.14 436.68 1037.48 431.23V431.23C1034.6 421.751 1035.35 411.538 1039.58 402.58L1042.01 397.444C1044.61 391.935 1048.77 387.304 1053.96 384.119V384.119C1058.89 381.099 1064.56 379.5 1070.34 379.5H1072.8C1077.24 379.5 1081.64 380.236 1085.83 381.677L1089.73 383.015C1093.56 384.332 1097.18 386.183 1100.49 388.514L1109 394.5L1111.9 391.6C1116.25 387.255 1121.51 383.934 1127.3 381.878V381.878C1131.73 380.304 1136.41 379.5 1141.11 379.5H1143.08C1148.95 379.5 1154.74 380.836 1160.02 383.406V383.406C1167.47 387.039 1173.59 393.017 1177.42 400.376V400.376C1181.95 409.1 1183.05 419.268 1180.45 428.751L1180.06 430.172C1178.37 436.313 1175.34 442 1171.17 446.818L1152 469Z" stroke="black" stroke-width="12"/>
<path d="M1622.22 617.586C1622.38 617.813 1622.31 618.119 1622.08 618.263L1589.83 638.357C1588.69 639.068 1588 640.317 1588 641.661C1588 643.79 1589.71 645.524 1591.84 645.555L1623 646H1976.09C1979.69 646 1983.28 645.682 1986.82 645.05L1987.5 644.929C1992.81 643.981 1997.95 642.276 2002.77 639.865C2005.92 638.292 2008.91 636.427 2011.71 634.295L2012.76 633.494C2016.24 630.837 2019.48 627.86 2022.41 624.601L2027 619.5L2030.52 614.357C2032.5 611.457 2034.26 608.405 2035.76 605.229C2037.25 602.081 2038.49 598.821 2039.48 595.479L2040.5 592C2041.83 586.359 2042.39 580.565 2042.18 574.774L2041.66 560.493C2041.55 557.504 2041.17 554.531 2040.52 551.611C2039.84 548.544 2038.87 545.55 2037.62 542.669L2034.5 535.5C2031.84 530.182 2028.63 525.159 2024.91 520.516L2022.5 517.5L2017.34 512.037C2015.12 509.683 2012.7 507.523 2010.11 505.581C2007.37 503.531 2004.46 501.731 2001.41 500.204L1998.47 498.733C1996.16 497.58 1993.75 496.653 1991.27 495.963C1987.77 494.992 1984.16 494.5 1980.53 494.5H1959.14C1955.69 494.5 1952.82 491.819 1952.59 488.369L1952.25 483.25C1951.75 475.766 1950.57 468.343 1948.71 461.075L1945.5 448.5C1942.84 436.545 1938.73 424.961 1933.25 414.008L1932.5 412.5L1926.29 402.403C1922.44 396.151 1917.96 390.308 1912.93 384.967C1907 378.679 1900.33 373.127 1893.08 368.431L1887 364.5L1872.97 358C1868.66 356.003 1864.21 354.323 1859.66 352.973C1855.23 351.659 1850.7 350.662 1846.13 349.989L1844.62 349.767C1838.88 348.924 1833.09 348.5 1827.29 348.5H1800L1780 351L1757 356.5L1735.5 364.5L1733.17 365.513C1727.08 368.162 1721.32 371.514 1716 375.5L1710.5 380C1709.91 380.59 1708.9 380.218 1708.83 379.385L1707.62 364.066C1707.54 363.032 1707.26 362.023 1706.8 361.095L1704 355.5L1701.5 350.5C1700.23 347.954 1701.67 344.889 1704.45 344.254L1715.55 341.718C1716.18 341.573 1716.8 341.382 1717.41 341.146L1725.5 338L1737.5 333L1752 327L1764 321.5L1779 313.5L1797 302.5L1816.5 289L1831.5 277L1845.5 264.5L1854.1 254.399C1856.03 252.137 1857.75 249.709 1859.25 247.144L1861.1 243.966C1863.02 240.684 1864.3 237.074 1864.9 233.321L1864.95 232.984C1865.32 230.671 1865.39 228.32 1865.17 225.988C1864.73 221.401 1863.16 216.993 1860.61 213.159L1859.93 212.14C1858.32 209.732 1856.31 207.622 1853.98 205.905C1850.08 203.031 1845.42 201.357 1840.59 201.088L1839 201C1829.03 201 1819.09 202.108 1809.37 204.304L1808.5 204.5C1803.18 205.83 1798 207.682 1793.05 210.03L1791 211L1771.5 221L1756.5 229L1745.5 236.5L1736.5 243L1725.5 252L1715.5 260.5L1707 268.5L1696.5 278.5L1685 290C1682.83 292.098 1679.44 289.383 1681.02 286.807L1696.5 261.5L1710 236L1716.5 220.5L1721.5 204.5L1724.5 190.5L1727.5 175.5C1728.16 171.85 1728.33 168.127 1727.99 164.433L1727.44 158.354C1727.15 155.143 1726.29 152.009 1724.91 149.095L1724.72 148.688C1723.26 145.595 1721.18 142.832 1718.61 140.568L1717.08 139.218C1715.06 137.432 1712.63 136.158 1710.01 135.503C1708.68 135.169 1707.3 135 1705.92 135H1700C1697.03 135.33 1694.16 136.255 1691.55 137.72L1689.78 138.715C1688.26 139.57 1686.82 140.547 1685.45 141.637L1680 146L1671.5 154.5L1663.5 164.5L1660.39 169.257C1656.8 174.743 1653.66 180.51 1651 186.5L1646 198.5L1641 210L1637.5 221.5L1633 239.5L1628 259.5L1624.5 276.5L1623.5 284C1623.5 287.314 1620.81 290 1617.5 290H1591C1583.36 290.664 1575.83 292.255 1568.58 294.736L1560.5 297.5L1547.5 304C1541.51 306.995 1535.76 310.456 1530.31 314.349L1528 316L1526.1 317.344C1519.38 322.103 1513.15 327.515 1507.5 333.5L1503 339L1497.5 346L1496.61 347.418C1493.89 351.781 1491.83 356.528 1490.5 361.5L1489.98 364.622C1488.99 370.531 1488.5 376.51 1488.5 382.5V391V396.096C1488.5 399.353 1488.9 402.598 1489.69 405.757C1490.23 407.915 1490.95 410.024 1491.84 412.062L1494 417L1498 424L1502 430L1507.5 437L1514 443.5L1520 448.5L1527 454L1535 459.5L1544.5 464.5C1548.83 466.83 1553.32 468.843 1557.94 470.523L1562 472L1571.5 475L1579.45 476.402C1579.81 476.467 1580.19 476.5 1580.56 476.5C1584.12 476.5 1587 479.382 1587 482.936V506L1588 517L1590.5 533.5L1593 549L1593.69 552.358C1595.56 561.437 1598.17 570.348 1601.5 579L1607 593L1607.79 594.776C1609.93 599.581 1612.51 604.176 1615.5 608.5L1619.5 613.5L1622.22 617.586Z" fill="#99D2F6" stroke="#99D2F6" stroke-width="3"/>
</svg>
