<svg width="42" height="36" viewBox="0 0 42 36" fill="none" xmlns="http://www.w3.org/2000/svg">
<path d="M21.6722 3.25535L21.0199 3.87225L20.3677 3.2536C18.1146 1.15565 15.0792 -0.0136398 11.9219 0.000120079C8.76449 0.0138799 5.74058 1.20957 3.50795 3.32708C1.27533 5.44458 0.0146345 8.31259 0.000126607 11.3072C-0.0143813 14.3017 1.21847 17.1806 3.43048 19.3175L4.08276 19.9361L21.0199 36L37.9571 19.9361L38.6094 19.3175C40.8038 17.1773 42.0218 14.3038 41.9997 11.3185C41.9777 8.33324 40.7174 5.4762 38.4916 3.36536C36.2658 1.25452 33.2533 0.0595763 30.1057 0.0389893C26.9581 0.0184023 23.9285 1.17383 21.6722 3.25535Z" fill="#FD3E81"/>
</svg>
