<svg width="81" height="90" viewBox="0 0 81 90" fill="none" xmlns="http://www.w3.org/2000/svg">
<path fill-rule="evenodd" clip-rule="evenodd" d="M0 77.8845C0 84.2918 5.19421 89.4861 11.6016 89.4861H68.7032C75.1106 89.4861 80.3048 84.2918 80.3048 77.8845V30.0279H0V77.8845ZM26.1036 80.7849C26.1036 82.7872 24.4804 84.4104 22.4781 84.4104H12.6892C10.6869 84.4104 9.06374 82.7872 9.06374 80.7849V72.99C9.06374 70.9877 10.6869 69.3645 12.6892 69.3645H22.4781C24.4804 69.3645 26.1036 70.9877 26.1036 72.99V80.7849ZM49.488 80.7849C49.488 82.7872 47.8649 84.4104 45.8625 84.4104H34.9861C32.9837 84.4104 31.3606 82.7872 31.3606 80.7849V72.99C31.3606 70.9877 32.9837 69.3645 34.9861 69.3645H45.8625C47.8649 69.3645 49.488 70.9877 49.488 72.99V80.7849ZM70.8785 80.7849C70.8785 82.7872 69.2553 84.4104 67.253 84.4104H58.008C56.0057 84.4104 54.3825 82.7872 54.3825 80.7849V72.99C54.3825 70.9877 56.0057 69.3645 58.008 69.3645H67.253C69.2553 69.3645 70.8785 70.9877 70.8785 72.99V80.7849ZM70.8785 60.6633C70.8785 62.6657 69.2553 64.2888 67.253 64.2888H58.008C56.0057 64.2888 54.3825 62.6656 54.3825 60.6633V53.0498C54.3825 51.0475 56.0057 49.4243 58.008 49.4243H67.253C69.2553 49.4243 70.8785 51.0475 70.8785 53.0498V60.6633ZM31.3606 60.6633C31.3606 62.6657 32.9837 64.2888 34.9861 64.2888H45.8625C47.8649 64.2888 49.488 62.6656 49.488 60.6633V53.0498C49.488 51.0475 47.8649 49.4243 45.8625 49.4243H34.9861C32.9837 49.4243 31.3606 51.0475 31.3606 53.0498V60.6633ZM58.008 33.5C56.0057 33.5 54.3825 35.1232 54.3825 37.1255V43.4422C54.3825 45.4445 56.0057 47.0677 58.008 47.0677H67.1504C69.1923 47.0677 70.8315 45.3822 70.7745 43.3411L70.5983 37.0244C70.5436 35.0622 68.9372 33.5 66.9742 33.5H58.008ZM9.06374 60.6633C9.06374 62.6657 10.6869 64.2888 12.6892 64.2888H22.4781C24.4804 64.2888 26.1036 62.6656 26.1036 60.6633V53.0498C26.1036 51.0475 24.4804 49.4243 22.4781 49.4243H12.6892C10.6869 49.4243 9.06374 51.0475 9.06374 53.0498V60.6633Z" fill="#9A89FA"/>
<path d="M0 30.0279H80.3048V16.6135C80.3048 12.4087 76.8961 9 72.6912 9H40.1524H7.61355C3.4087 9 0 12.4087 0 16.6135V30.0279Z" fill="#FFB60C" fill-opacity="0.69"/>
<path d="M25.3572 8.88247C25.3572 3.98468 20.6454 0 14.8539 0C9.0624 0 4.35062 3.98468 4.35062 8.88247C4.35062 13.7803 9.0624 17.7649 14.8539 17.7649C16.014 17.7649 16.9546 16.9695 16.9546 15.9884C16.9546 15.0074 16.014 14.212 14.8539 14.212C11.3792 14.212 8.55193 11.821 8.55193 8.88247C8.55193 5.94393 11.3792 3.55299 14.8539 3.55299C18.3287 3.55299 21.1559 5.94393 21.1559 8.88247C21.1559 9.86354 22.0965 10.659 23.2565 10.659C24.4166 10.659 25.3572 9.86354 25.3572 8.88247Z" fill="#0E61AF"/>
<path d="M42.1624 8.88247C42.1624 3.98468 37.4506 0 31.6591 0C25.8675 0 21.1558 3.98468 21.1558 8.88247C21.1558 13.7803 25.8675 17.7649 31.6591 17.7649C32.8191 17.7649 33.7597 16.9695 33.7597 15.9884C33.7597 15.0074 32.8191 14.212 31.6591 14.212C28.1843 14.212 25.3571 11.821 25.3571 8.88247C25.3571 5.94393 28.1843 3.55299 31.6591 3.55299C35.1338 3.55299 37.961 5.94393 37.961 8.88247C37.961 9.86354 38.9016 10.659 40.0617 10.659C41.2218 10.659 42.1624 9.86354 42.1624 8.88247Z" fill="#0E61AF"/>
<path d="M58.9678 8.88247C58.9678 3.98468 54.256 0 48.4645 0C42.673 0 37.9612 3.98468 37.9612 8.88247C37.9612 13.7803 42.673 17.7649 48.4645 17.7649C49.6246 17.7649 50.5652 16.9695 50.5652 15.9884C50.5652 15.0074 49.6246 14.212 48.4645 14.212C44.9897 14.212 42.1625 11.821 42.1625 8.88247C42.1625 5.94393 44.9897 3.55299 48.4645 3.55299C51.9392 3.55299 54.7665 5.94393 54.7665 8.88247C54.7665 9.86354 55.707 10.659 56.8671 10.659C58.0272 10.659 58.9678 9.86354 58.9678 8.88247Z" fill="#0E61AF"/>
<path fill-rule="evenodd" clip-rule="evenodd" d="M64.8374 0C70.3906 0 75.0973 5.05301 75.0973 9.34874L74.9729 9.32807C73.6599 9.10973 72.3311 9 71 9V9C71 6.42267 68.1692 3.11624 64.8374 3.11624C61.5056 3.11624 58.7948 5.21327 58.7948 7.7906C58.7948 10.3679 61.5056 12.465 64.8374 12.465C65.9497 12.465 66.8516 13.1626 66.8516 14.0231C66.8516 14.8836 65.9497 15.5812 64.8374 15.5812C59.2842 15.5812 54.7663 12.0863 54.7663 7.7906C54.7663 3.49486 59.2842 0 64.8374 0Z" fill="#0E61AF"/>
</svg>
