<svg width="101" height="180" viewBox="0 0 101 180" fill="none" xmlns="http://www.w3.org/2000/svg">
<path d="M50 179.999L93.6311 89.9998H7.02853L50 179.999Z" fill="#F8617A"/>
<path d="M50 0L93.6311 89.9994H7.02853L50 0Z" fill="#F8617A"/>
<circle cx="12.5" cy="12.5" r="12.5" transform="matrix(-0.0139305 -0.999903 0.999902 -0.0140349 37.3483 102.348)" fill="white"/>
<path d="M50 174.999L89.2735 92.4998L11.3312 92.4998L50 174.999Z" fill="white"/>
<path d="M50 79L52.2731 84.5122L57.7782 82.2218L55.4878 87.7269L61 90L55.4878 92.2731L57.7782 97.7782L52.2731 95.4878L50 101L47.7269 95.4878L42.2218 97.7782L44.5122 92.2731L39 90L44.5122 87.7269L42.2218 82.2218L47.7269 84.5122L50 79Z" fill="#FD3E81"/>
</svg>
