<svg width="84" height="72" viewBox="0 0 84 72" fill="none" xmlns="http://www.w3.org/2000/svg">
<circle cx="36" cy="36" r="36" fill="#1DB067"/>
<path d="M66 36C66 52.5685 52.5685 66 36 66C19.4315 66 6 52.5685 6 36C6 19.4315 19.4315 6 36 6C52.5685 6 66 19.4315 66 36Z" fill="white"/>
<path d="M36.5905 51.9083C37.3751 52.6552 38.6117 52.6416 39.3798 51.8778L82.8738 8.62278C83.1043 8.39351 82.942 8 82.6168 8H79.7767C76.3015 8 72.8688 8.76461 69.7222 10.2396V10.2396C67.586 11.2409 65.6115 12.5557 63.8638 14.1404L37.6545 37.9065C37.2855 38.2411 36.7209 38.2342 36.3602 37.8907L29.866 31.7058C27.6663 29.6107 24.9225 28.1752 21.9471 27.5626V27.5626C19.3551 27.029 16.6718 27.1374 14.1313 27.8784L12.3923 28.3856C12.2182 28.4364 12.1646 28.6567 12.296 28.7817L36.5905 51.9083Z" fill="#17B36A" stroke="#17B36A" stroke-width="2"/>
</svg>
