<svg width="68" height="58" viewBox="0 0 68 58" fill="none" xmlns="http://www.w3.org/2000/svg">
<path d="M18.9237 42.668L16.9557 40.988C16.8277 40.892 16.7317 40.796 16.6677 40.7C16.6037 40.572 16.5557 40.492 16.5237 40.46L16.5717 39.596L16.7157 39.356C16.9397 39.228 17.2117 38.972 17.5317 38.588C17.8837 38.204 18.5557 37.484 19.5477 36.428L20.6997 35.228C21.0517 34.876 21.4997 34.412 22.0437 33.836C22.6197 33.228 23.1317 32.668 23.5797 32.156C24.0597 31.644 24.3317 31.356 24.3957 31.292C23.8517 30.46 23.1637 29.628 22.3317 28.796C21.4997 27.964 20.7317 27.196 20.0277 26.492C19.3237 25.788 18.8597 25.228 18.6357 24.812C18.5397 24.748 18.3477 24.556 18.0597 24.236C17.7717 23.884 17.4997 23.564 17.2437 23.276C17.0197 22.956 16.9237 22.844 16.9557 22.94L15.8037 21.308C15.4837 20.86 15.3717 20.54 15.4677 20.348C15.5637 20.124 15.6277 19.788 15.6597 19.34C15.7557 19.34 15.8837 19.244 16.0437 19.052C16.2037 18.86 16.3157 18.748 16.3797 18.716C16.4757 18.652 16.5717 18.604 16.6677 18.572C16.7317 18.476 16.9557 18.252 17.3397 17.9C17.7237 17.548 18.1077 17.196 18.4917 16.844C18.8757 16.492 19.1157 16.268 19.2117 16.172C20.2357 15.34 20.9717 14.716 21.4197 14.3C21.8997 13.884 22.2997 13.532 22.6197 13.244C22.9717 12.924 23.4517 12.556 24.0597 12.14L25.5957 12.044C25.6597 12.044 25.8197 12.108 26.0757 12.236C26.3637 12.364 26.5557 12.492 26.6517 12.62L29.6757 15.932L32.6517 18.956C32.7157 19.084 32.7477 19.132 32.7477 19.1C32.7477 19.228 32.8117 19.356 32.9397 19.484C33.0677 19.612 33.1637 19.692 33.2277 19.724L33.4677 19.82H33.5157C33.5797 19.82 33.6917 19.98 33.8517 20.3C34.0117 20.588 34.1877 20.86 34.3797 21.116C34.5717 21.34 34.7317 21.388 34.8597 21.26L35.3397 20.684L36.6357 19.532C36.8917 19.308 37.3237 18.892 37.9317 18.284C38.5717 17.644 39.2597 16.972 39.9957 16.268C40.7317 15.532 41.3877 14.876 41.9637 14.3C42.5397 13.724 42.9077 13.372 43.0677 13.244C43.2277 12.956 43.3877 12.812 43.5477 12.812C43.9957 12.652 44.3317 12.636 44.5557 12.764C44.8117 12.892 45.0357 13.052 45.2277 13.244C45.4197 13.436 45.6277 13.548 45.8517 13.58C46.2357 13.772 46.7317 14.14 47.3397 14.684C47.9477 15.196 48.5557 15.772 49.1637 16.412C49.7717 17.052 50.2837 17.676 50.6997 18.284C51.1477 18.86 51.4037 19.308 51.4677 19.628C51.4357 20.012 51.3237 20.3 51.1317 20.492C50.9717 20.684 50.7157 21.004 50.3637 21.452C50.4597 21.388 50.3637 21.532 50.0757 21.884C49.8197 22.236 49.4837 22.652 49.0677 23.132C48.6517 23.612 48.2517 24.06 47.8677 24.476C47.5157 24.86 47.2917 25.084 47.1957 25.148C46.9397 25.468 46.5077 25.932 45.8997 26.54C45.3237 27.148 44.7797 27.708 44.2677 28.22C43.7877 28.732 43.4997 29.036 43.4037 29.132C45.0037 30.7 46.4917 32.172 47.8677 33.548C49.2437 34.924 50.3317 35.964 51.1317 36.668C51.8357 37.34 52.2677 37.9 52.4277 38.348C52.5877 38.796 52.6197 39.148 52.5237 39.404C52.4277 39.66 52.3477 39.852 52.2837 39.98L51.8517 40.748L51.6117 40.844C51.0997 41.324 50.5237 41.868 49.8837 42.476C49.2437 43.084 48.6357 43.66 48.0597 44.204C47.4837 44.748 47.0037 45.196 46.6197 45.548C46.2677 45.9 46.0917 46.076 46.0917 46.076C45.4517 46.588 44.7957 47.004 44.1237 47.324C43.4837 47.644 42.9397 47.836 42.4917 47.9L40.1397 45.836L40.2837 45.452H39.9957C39.9637 45.484 39.9317 45.468 39.8997 45.404C39.8677 45.34 39.7877 45.292 39.6597 45.26C38.8597 44.268 38.1397 43.484 37.4997 42.908C36.8917 42.332 36.3477 41.852 35.8677 41.468C35.4197 41.052 35.0357 40.62 34.7157 40.172C34.4277 39.884 34.2357 39.708 34.1397 39.644C34.0757 39.58 34.1077 39.58 34.2357 39.644C33.9797 39.356 33.8037 39.18 33.7077 39.116C33.6437 39.02 33.5797 38.972 33.5157 38.972L32.0277 40.508L26.6997 45.692L25.7877 46.556L25.1157 47.42L24.4437 47.708L23.7237 47.276V47.036H23.6277C23.5317 47.036 23.4677 47.052 23.4357 47.084C23.4677 47.116 23.4517 47.132 23.3877 47.132C23.3877 47.1 23.4037 47.084 23.4357 47.084C23.4037 46.924 23.1957 46.652 22.8117 46.268C22.4597 45.884 22.0277 45.468 21.5157 45.02C21.0037 44.54 20.5077 44.092 20.0277 43.676C19.5477 43.228 19.1797 42.892 18.9237 42.668Z" fill="#050a30"/>
</svg>
