<svg width="146" height="128" viewBox="0 0 146 128" fill="none" xmlns="http://www.w3.org/2000/svg">
<path d="M72.803 126.829C73.1916 127.203 73.807 127.201 74.1939 126.825L127.5 75L131.5 71L135.027 66.8846C136.673 64.9649 138.154 62.9102 139.455 60.7421V60.7421C141.146 57.9225 142.525 54.9262 143.564 51.8067L144 50.5V50.5C144.995 47.1844 145.5 43.7414 145.5 40.2798V36.5L145.372 35.3472C145.125 33.1206 144.668 30.9223 144.01 28.7812V28.7812C143.338 26.5987 142.459 24.4857 141.384 22.4709L141.134 22.0005C139.715 19.3415 138.011 16.8456 136.049 14.5576L135.87 14.3482C133.962 12.1227 131.817 10.1128 129.472 8.35411V8.35411C127.826 7.11986 126.088 6.01384 124.273 5.0458L123.997 4.89832C121.009 3.30471 117.848 2.0594 114.576 1.18684L112 0.5V0.5C109.67 0.167086 107.319 0 104.964 0H102.883C100.965 0 99.0506 0.172615 97.1633 0.515758V0.515758C95.3909 0.83801 93.649 1.30947 91.956 1.9251L91.5915 2.05765C89.8663 2.68499 88.1908 3.44139 86.5792 4.32042L86.4603 4.38529C84.4906 5.45969 82.6189 6.70487 80.8669 8.1065L78.5 10L76 12.5L74.2682 14.5781C73.8684 15.0579 73.1316 15.0579 72.7318 14.5781L71 12.5L70.8403 12.3403C69.2825 10.7825 67.605 9.34913 65.8234 8.05336V8.05336C63.9443 6.68679 61.9556 5.4778 59.8775 4.43874L57 3L54.044 1.9251C52.351 1.30947 50.6091 0.83801 48.8367 0.515758V0.515758C46.9494 0.172615 45.0351 0 43.1168 0H41.0646C35.3962 0 29.769 0.963898 24.4236 2.85048L24 3L21.1149 4.44256C19.0441 5.47796 17.0885 6.72922 15.2806 8.17553V8.17553C13.7632 9.38945 12.3564 10.7355 11.0768 12.198L9.04958 14.5148C7.0232 16.8306 5.26879 19.371 3.82067 22.0862L3.24723 23.1614C2.41765 24.7169 1.739 26.3483 1.22056 28.0332V28.0332C0.411403 30.6629 0 33.3989 0 36.1504V36.5V38.9102C0 43.2773 0.673944 47.6181 1.99804 51.7795L2.20939 52.4438C3.06689 55.1388 4.23493 57.7249 5.68998 60.15V60.15C7.2242 62.707 9.06623 65.0662 11.1748 67.1748L15 71L19 75L72.803 126.829Z" fill="#447AFB"/>
</svg>
