<svg width="25" height="28" viewBox="0 0 25 28" fill="none" xmlns="http://www.w3.org/2000/svg">
<path d="M10.6976 10.2336C10.7668 10.3373 10.9024 10.3733 11.014 10.3176C11.0618 10.2936 11.1007 10.2548 11.1246 10.207L12.2982 7.85965L13.074 6.48052C13.3625 5.96765 13.7197 5.49663 14.1358 5.08054L15.0674 4.149C15.2834 3.93298 15.5145 3.73257 15.7589 3.54927L17.1709 2.49022C17.4192 2.304 17.6806 2.13593 17.9531 1.98731L18.3558 1.76764C18.7988 1.52602 19.2727 1.34598 19.7644 1.23252L20.1473 1.14415C20.5602 1.04887 20.9871 1.03074 21.4066 1.09066L21.5108 1.10555C21.6456 1.12481 21.7785 1.15617 21.9077 1.19925C22.3083 1.33277 22.6637 1.57535 22.934 1.89973L23.0341 2.01983C23.1398 2.14671 23.2342 2.28265 23.3161 2.42606L23.5058 2.75797C23.6554 3.01973 23.7729 3.29858 23.8557 3.58846C23.9514 3.92356 24 4.27037 24 4.61888V6.20148C24 6.58879 23.9651 6.97532 23.8959 7.35638L23.731 8.26316L22.924 11.8947L22.2515 14.1813L21.0409 18.0819L19.8304 21.1754L18.9563 23.3607C18.8219 23.6966 18.6595 24.0207 18.4709 24.3295L17.4685 25.9697C17.3402 26.1796 17.1797 26.3681 16.9929 26.5282L16.6173 26.8502C16.434 27.0072 16.2007 27.0936 15.9594 27.0936C15.8507 27.0936 15.7428 27.076 15.6397 27.0417L15.3336 26.9397C15.1043 26.8632 14.885 26.7593 14.6805 26.6302L12.9706 25.5502C12.6129 25.3243 12.2783 25.0638 11.9715 24.7724L9.74269 22.655L7.59064 20.5029L5.03509 17.5439L3.55987 15.5418C3.28875 15.1738 3.05748 14.7781 2.86993 14.3614L1.94152 12.2982L1.26901 10.0117L1.13771 9.42087C1.04618 9.00898 1 8.58829 1 8.16635V7.40325C1 7.17163 1.0442 6.94214 1.13022 6.72709C1.22179 6.49816 1.3589 6.29022 1.53325 6.11587L1.68447 5.96465C1.85508 5.79405 2.04766 5.64695 2.25715 5.52725L2.30465 5.5001C2.68368 5.28351 3.11266 5.16959 3.5492 5.16959C3.73223 5.16959 3.9147 5.18962 4.09336 5.22932L4.39517 5.29639C4.82018 5.39084 5.232 5.53705 5.62141 5.73176L6.11111 5.97661L7.09231 6.51181C7.42389 6.69267 7.73896 6.90228 8.0339 7.13823L8.37552 7.41153C8.74781 7.70936 9.08596 8.04751 9.3838 8.4198L10.0117 9.20468L10.6976 10.2336Z" fill="#787672" stroke="#787672" stroke-width="1.44964"/>
</svg>
