<svg width="88" height="68" viewBox="0 0 88 68" fill="none" xmlns="http://www.w3.org/2000/svg">
<path d="M35.9182 27.0873C36.7566 27.4227 37.671 27.5215 38.5617 27.373V27.373C40.1188 27.1135 41.4577 26.1247 42.1636 24.7128L42.4344 24.1713C42.78 23.4799 42.96 22.7176 42.96 21.9446V21.9446C42.96 20.2799 42.128 18.7253 40.7429 17.8019L40.3873 17.5649C39.561 17.014 38.59 16.72 37.5969 16.72H37.5127C36.4789 16.72 35.4729 17.0553 34.6458 17.6756V17.6756C33.8116 18.3013 33.2049 19.1828 32.9184 20.1855L32.6571 21.1001C32.289 22.3887 32.4713 23.7722 33.1608 24.9214V24.9214C33.7052 25.8287 34.5319 26.5328 35.5144 26.9258L35.9182 27.0873Z" fill="#BC4ADB"/>
<path d="M19.4538 59.2342C19.3731 59.404 19.497 59.6 19.685 59.6H78.9893C79.188 59.6 79.311 59.3836 79.2092 59.2129L61.5835 29.6472C60.6436 28.0705 58.3987 27.9663 57.3167 29.449L44.4618 47.065C43.4181 48.4952 41.2725 48.4595 40.2769 46.9954L33.9523 37.6946C32.84 36.0588 30.3718 36.2489 29.523 38.0357L19.4538 59.2342Z" fill="#BC4ADB"/>
<path d="M11.6 57.04H4.56C3.14615 57.04 2 55.8938 2 54.48V4.56C2 3.14615 3.14615 2 4.56 2H73.68C75.0939 2 76.24 3.14615 76.24 4.56V9.04M33.1608 24.9214V24.9214C32.4713 23.7722 32.289 22.3887 32.6571 21.1001L32.9184 20.1855C33.2049 19.1828 33.8116 18.3013 34.6458 17.6756V17.6756C35.4729 17.0553 36.4789 16.72 37.5127 16.72H37.5969C38.59 16.72 39.561 17.014 40.3873 17.5649L40.7429 17.8019C42.128 18.7253 42.96 20.2799 42.96 21.9446V21.9446C42.96 22.7176 42.78 23.4799 42.4344 24.1713L42.1636 24.7128C41.4577 26.1247 40.1188 27.1135 38.5617 27.373V27.373C37.671 27.5215 36.7566 27.4227 35.9182 27.0873L35.5144 26.9258C34.5319 26.5328 33.7052 25.8287 33.1608 24.9214ZM33.9523 37.6946L40.2769 46.9954C41.2725 48.4595 43.4181 48.4952 44.4618 47.065L57.3167 29.449C58.3987 27.9663 60.6436 28.0705 61.5835 29.6472L79.2092 59.2129C79.311 59.3836 79.188 59.6 78.9893 59.6H19.685C19.497 59.6 19.3731 59.404 19.4538 59.2342L29.523 38.0357C30.3718 36.2489 32.84 36.0588 33.9523 37.6946ZM15.44 10.96H83.28C84.6939 10.96 85.84 12.1062 85.84 13.52V63.44C85.84 64.8538 84.6939 66 83.28 66H15.44C14.0262 66 12.88 64.8538 12.88 63.44V13.52C12.88 12.1062 14.0262 10.96 15.44 10.96Z" stroke="#BC4ADB" stroke-width="4"/>
</svg>
