<svg width="72" height="99" viewBox="0 0 72 99" fill="none" xmlns="http://www.w3.org/2000/svg">
<path fill-rule="evenodd" clip-rule="evenodd" d="M35.1727 97.2816C35.5695 97.8659 36.4305 97.8659 36.8273 97.2816L63.5 58L66.3522 52.5549C68.1073 49.2043 69.3442 45.6071 70.0208 41.8857L70.1598 41.1211C70.717 38.0567 70.8253 34.9275 70.4813 31.8319V31.8319C70.1619 28.9571 69.4555 26.1387 68.3813 23.4532L68.3022 23.2556C67.4364 21.091 66.3482 19.0223 65.055 17.0825L64.7945 16.6918C63.6011 14.9016 62.2337 13.2337 60.7124 11.7124V11.7124C58.9103 9.91032 56.9036 8.32528 54.7331 6.98961L54.4364 6.80701C52.4834 5.60514 50.4189 4.59458 48.2717 3.78938L47.6265 3.54746C44.8856 2.51959 42.0303 1.8271 39.123 1.48506L38.9177 1.4609C36.3144 1.15463 33.6847 1.14615 31.0795 1.43562L30.6736 1.48071C27.5748 1.82502 24.5436 2.62416 21.6779 3.85235V3.85235C19.8964 4.61584 18.1886 5.54095 16.5759 6.61607L16.4667 6.68884C14.1646 8.22358 12.0636 10.0404 10.2128 12.0969L10.147 12.17C9.05044 13.3884 8.04358 14.6846 7.13432 16.0485L6.24036 17.3895C5.08325 19.1251 4.1095 20.9763 3.33477 22.9131V22.9131C2.1197 25.9507 1.40744 29.166 1.22596 32.4327L1.20949 32.7292C1.07031 35.2344 1.22675 37.7471 1.67557 40.2157L1.8734 41.3037C2.62015 45.4108 3.98529 49.381 5.92227 53.0789L8.5 58L35.1727 97.2816ZM23.8713 59.1856C25.6185 60.0593 27.4561 60.739 29.3513 61.2128L30.5 61.5L34.5 62H39L41.3477 61.7065C42.4466 61.5692 43.5291 61.3236 44.5797 60.9734V60.9734C45.5247 60.6584 46.4398 60.2601 47.3144 59.7831L49.0963 58.8111C50.6944 57.9394 52.1968 56.9028 53.5789 55.7181V55.7181C54.5251 54.9071 55.4202 54.0198 56.2408 53.0819V53.0819C57.7308 51.3791 59.0122 49.4757 60.0241 47.4519L60.5 46.5L60.9102 45.6796C61.634 44.232 62.1775 42.7011 62.5286 41.1212V41.1212C62.8419 39.7113 63 38.2714 63 36.8271V35V32.1675C63 30.726 62.8576 29.2881 62.5749 27.8745L62.5241 27.6207C62.1763 25.8813 61.598 24.1961 60.8048 22.6095V22.6095C60.2693 21.5387 59.6386 20.5182 58.9203 19.5604L58.2728 18.6971C57.4253 17.5671 56.4987 16.4987 55.5 15.5L55.3642 15.3642C54.4559 14.4559 53.4842 13.6132 52.4566 12.8424L52.3547 12.766C50.7899 11.5924 49.0977 10.599 47.3103 9.80457V9.80457C46.1052 9.26897 44.8611 8.82575 43.5888 8.47876L43.5065 8.45633C41.1792 7.82161 38.7777 7.5 36.3654 7.5H35L32.5742 7.74258C30.8634 7.91366 29.1769 8.27438 27.5457 8.81809V8.81809C26.1848 9.27172 24.869 9.85058 23.615 10.5472L21 12L18.3067 14.02C17.4367 14.6725 16.614 15.386 15.845 16.155L15.8188 16.1812C14.9411 17.0589 14.1374 18.0076 13.4159 19.0177L13.2711 19.2205C12.4262 20.4034 11.7112 21.6739 11.1386 23.01V23.01C10.7135 24.0018 10.3685 25.0259 10.1068 26.0726L9.55504 28.2799C9.18562 29.7575 8.93644 31.2627 8.80995 32.7806L8.73959 33.625C8.58055 35.5333 8.67352 37.4544 9.01608 39.3385V39.3385C9.33746 41.106 9.87598 42.8272 10.6194 44.4627L12 47.5L14.5 51.5L15.0967 52.216C16.3619 53.7343 17.7868 55.112 19.3468 56.3253L19.4073 56.3724C20.799 57.4548 22.2943 58.3971 23.8713 59.1856V59.1856Z" fill="#FFCD57"/>
<path fill-rule="evenodd" clip-rule="evenodd" d="M23.9248 48.5175C23.9667 49.9006 25.0999 51 26.4836 51H45.44C46.8538 51 48 49.8538 48 48.44V42.75V34.7C48 34.5895 48.0895 34.5 48.2 34.5H53.9753C54.159 34.5 54.2455 34.273 54.1084 34.1507L37.704 19.5198C36.733 18.6538 35.267 18.6538 34.296 19.5198L17.8916 34.1507C17.7545 34.273 17.841 34.5 18.0247 34.5H23.306C23.4141 34.5 23.5026 34.5859 23.5059 34.6939L23.9248 48.5175ZM31.5 42.8C31.5 42.9105 31.5895 43 31.7 43H39.8C39.9105 43 40 42.9105 40 42.8V36.2C40 36.0895 39.9105 36 39.8 36H31.7C31.5895 36 31.5 36.0895 31.5 36.2V42.8Z" fill="#FFCD57"/>
<path fill-rule="evenodd" clip-rule="evenodd" d="M35.1727 97.2816C35.5695 97.8659 36.4305 97.8659 36.8273 97.2816L63.5 58L66.3522 52.5549C68.1073 49.2043 69.3442 45.6071 70.0208 41.8857L70.1598 41.1211C70.717 38.0567 70.8253 34.9275 70.4813 31.8319V31.8319C70.1619 28.9571 69.4555 26.1387 68.3813 23.4532L68.3022 23.2556C67.4364 21.091 66.3482 19.0223 65.055 17.0825L64.7945 16.6918C63.6011 14.9016 62.2337 13.2337 60.7124 11.7124V11.7124C58.9103 9.91032 56.9036 8.32528 54.7331 6.98961L54.4364 6.80701C52.4834 5.60514 50.4189 4.59458 48.2717 3.78938L47.6265 3.54746C44.8856 2.51959 42.0303 1.8271 39.123 1.48506L38.9177 1.4609C36.3144 1.15463 33.6847 1.14615 31.0795 1.43562L30.6736 1.48071C27.5748 1.82502 24.5436 2.62416 21.6779 3.85235V3.85235C19.8964 4.61584 18.1886 5.54095 16.5759 6.61607L16.4667 6.68884C14.1646 8.22358 12.0636 10.0404 10.2128 12.0969L10.147 12.17C9.05044 13.3884 8.04358 14.6846 7.13432 16.0485L6.24036 17.3895C5.08325 19.1251 4.1095 20.9763 3.33477 22.9131V22.9131C2.1197 25.9507 1.40744 29.166 1.22596 32.4327L1.20949 32.7292C1.07031 35.2344 1.22675 37.7471 1.67557 40.2157L1.8734 41.3037C2.62015 45.4108 3.98529 49.381 5.92227 53.0789L8.5 58L35.1727 97.2816ZM23.8713 59.1856C25.6185 60.0593 27.4561 60.739 29.3513 61.2128L30.5 61.5L34.5 62H39L41.3477 61.7065C42.4466 61.5692 43.5291 61.3236 44.5797 60.9734V60.9734C45.5247 60.6584 46.4398 60.2601 47.3144 59.7831L49.0963 58.8111C50.6944 57.9394 52.1968 56.9028 53.5789 55.7181V55.7181C54.5251 54.9071 55.4202 54.0198 56.2408 53.0819V53.0819C57.7308 51.3791 59.0122 49.4757 60.0241 47.4519L60.5 46.5L60.9102 45.6796C61.634 44.232 62.1775 42.7011 62.5286 41.1212V41.1212C62.8419 39.7113 63 38.2714 63 36.8271V35V32.1675C63 30.726 62.8576 29.2881 62.5749 27.8745L62.5241 27.6207C62.1763 25.8813 61.598 24.1961 60.8048 22.6095V22.6095C60.2693 21.5387 59.6386 20.5182 58.9203 19.5604L58.2728 18.6971C57.4253 17.5671 56.4987 16.4987 55.5 15.5L55.3642 15.3642C54.4559 14.4559 53.4842 13.6132 52.4566 12.8424L52.3547 12.766C50.7899 11.5924 49.0977 10.599 47.3103 9.80457V9.80457C46.1052 9.26897 44.8611 8.82575 43.5888 8.47876L43.5065 8.45633C41.1792 7.82161 38.7777 7.5 36.3654 7.5H35L32.5742 7.74258C30.8634 7.91366 29.1769 8.27438 27.5457 8.81809V8.81809C26.1848 9.27172 24.869 9.85058 23.615 10.5472L21 12L18.3067 14.02C17.4367 14.6725 16.614 15.386 15.845 16.155L15.8188 16.1812C14.9411 17.0589 14.1374 18.0076 13.4159 19.0177L13.2711 19.2205C12.4262 20.4034 11.7112 21.6739 11.1386 23.01V23.01C10.7135 24.0018 10.3685 25.0259 10.1068 26.0726L9.55504 28.2799C9.18562 29.7575 8.93644 31.2627 8.80995 32.7806L8.73959 33.625C8.58055 35.5333 8.67352 37.4544 9.01608 39.3385V39.3385C9.33746 41.106 9.87598 42.8272 10.6194 44.4627L12 47.5L14.5 51.5L15.0967 52.216C16.3619 53.7343 17.7868 55.112 19.3468 56.3253L19.4073 56.3724C20.799 57.4548 22.2943 58.3971 23.8713 59.1856V59.1856Z" stroke="#FFCD57"/>
<path fill-rule="evenodd" clip-rule="evenodd" d="M23.9248 48.5175C23.9667 49.9006 25.0999 51 26.4836 51H45.44C46.8538 51 48 49.8538 48 48.44V42.75V34.7C48 34.5895 48.0895 34.5 48.2 34.5H53.9753C54.159 34.5 54.2455 34.273 54.1084 34.1507L37.704 19.5198C36.733 18.6538 35.267 18.6538 34.296 19.5198L17.8916 34.1507C17.7545 34.273 17.841 34.5 18.0247 34.5H23.306C23.4141 34.5 23.5026 34.5859 23.5059 34.6939L23.9248 48.5175ZM31.5 42.8C31.5 42.9105 31.5895 43 31.7 43H39.8C39.9105 43 40 42.9105 40 42.8V36.2C40 36.0895 39.9105 36 39.8 36H31.7C31.5895 36 31.5 36.0895 31.5 36.2V42.8Z" stroke="#FFCD57"/>
</svg>
