<svg width="25" height="24" viewBox="0 0 25 24" fill="none" xmlns="http://www.w3.org/2000/svg">
<path d="M19.9222 8.45763V8.45763C19.3341 8.45763 18.7498 8.55313 18.1923 8.7404L18.1461 8.75593L17.9229 8.80467C17.511 8.8946 17.1214 8.58091 17.1214 8.15932V8.15932V7.20224C17.1214 6.69783 17.0757 6.19446 16.9848 5.69831V5.69831M19.9222 8.45763L20.4026 8.94931C20.8083 9.36452 21.1437 9.84295 21.3958 10.3659V10.3659C21.5966 10.7823 21.7426 11.2231 21.8302 11.6771L21.8558 11.8102C21.9328 12.2093 21.9715 12.6148 21.9715 13.0212V13.5188C21.9715 14.2201 21.908 14.9199 21.7816 15.6097L21.6983 16.0644V16.0644C21.5834 16.6913 21.9798 17.2983 22.6 17.4452L22.8311 17.5L23.2682 17.6567C23.4927 17.7372 23.6915 17.8763 23.844 18.0595L23.8995 18.1261C24.1465 18.4227 24.2315 18.822 24.1268 19.1936V19.1936C24.058 19.4376 23.912 19.6527 23.7106 19.8066L23.5903 19.8986C23.4235 20.026 23.2337 20.1199 23.0312 20.1752L21.9715 20.4644L21.2958 20.5751C20.8362 20.6503 20.3713 20.6881 19.9056 20.6881H19.3347C19.1348 20.6881 18.9355 20.6679 18.7397 20.6279L18.2525 20.5281C18.0487 20.4864 17.86 20.3905 17.7061 20.2506V20.2506C17.5908 20.1456 17.4978 20.0184 17.4329 19.8767L17.3331 19.6586C17.1936 19.3542 17.1214 19.0233 17.1214 18.6884V18.1525V16.0644V14.5C17.1214 14.1738 16.9548 13.8702 16.6796 13.6949V13.6949C16.4402 13.5424 16.1454 13.5044 15.8751 13.5912L15.3385 13.7635C15.2095 13.8049 15.0964 13.8848 15.0142 13.9925V13.9925C14.8797 14.1687 14.8421 14.4005 14.9141 14.6102L15.2675 15.6388C15.3643 15.9206 15.4137 16.2165 15.4137 16.5144V16.8951C15.4137 17.2846 15.3679 17.6727 15.2774 18.0515L15.1302 18.6674C15.0468 19.0165 14.8922 19.3445 14.6761 19.631V19.631C14.2726 20.1659 13.6785 20.5248 13.0172 20.6331L12.9117 20.6504C12.7583 20.6755 12.6031 20.6881 12.4476 20.6881H10.9051H9.87894C9.56316 20.6881 9.24938 20.6381 8.94929 20.5398L8.83709 20.503C8.7586 20.4773 8.67816 20.458 8.59656 20.4453L7.48183 20.2714C7.36868 20.2538 7.25979 20.322 7.22635 20.4316V20.4316C7.2197 20.4533 7.21632 20.476 7.21632 20.4987V20.7627L7.1708 21.6571C7.15618 21.9445 7.03059 22.215 6.8205 22.4116L6.69141 22.5323C6.39728 22.8076 5.95411 22.8487 5.61434 22.6323V22.6323C5.4568 22.532 5.33514 22.3843 5.26689 22.2104L4.75712 20.9119L4.29903 19.6338C4.1947 19.3428 4.11241 19.0443 4.05285 18.7408L3.98672 18.4039C3.9539 18.2367 3.93738 18.0668 3.93738 17.8964V17.4071C3.93738 17.1175 4.03724 16.8367 4.22012 16.6121V16.6121C4.39136 16.4018 4.62594 16.2523 4.88895 16.1861L5.18312 16.112C5.30873 16.0803 5.43692 16.06 5.56616 16.0512L5.97373 16.0233C6.30074 16.001 6.62894 16.0026 6.95571 16.0281L7.42125 16.0644H8.51423H8.90106C9.00533 16.0644 9.10744 16.0347 9.19539 15.9786V15.9786C9.52301 15.77 9.53554 15.2962 9.2194 15.0705L1.43764 9.51579C1.19683 9.34389 1.14294 9.00833 1.31782 8.76967L1.36195 8.70946C1.47193 8.55937 1.66619 8.4974 1.84277 8.55607V8.55607C2.23897 8.68771 2.57036 8.23281 2.32359 7.89605L2.04323 7.51346C1.89133 7.30618 1.96438 7.01193 2.19558 6.89975L2.24696 6.87482C2.32265 6.83809 2.41061 6.83633 2.4877 6.87L2.66508 6.94746C2.90938 7.05414 3.12581 6.75128 2.94575 6.55471V6.55471C2.88349 6.48674 2.86431 6.38973 2.89602 6.30318L2.97157 6.097C3.05931 5.85753 3.28722 5.69831 3.54226 5.69831H3.61468C3.69209 5.69831 3.7684 5.71662 3.83738 5.75176V5.75176C4.20568 5.9394 4.62673 5.61536 4.53964 5.21129L4.51169 5.08162C4.4934 4.99676 4.49532 4.90879 4.5173 4.82481L4.5788 4.58982C4.67448 4.22423 5.06382 4.02009 5.41895 4.14932V4.14932C5.52247 4.18699 5.61455 4.25068 5.68632 4.33426L6.60152 5.4L7.39897 6.41569C7.41376 6.43453 7.42605 6.4552 7.43553 6.4772V6.4772C7.55483 6.75396 7.96774 6.66875 7.96774 6.36738V5.50808C7.96774 5.43702 7.9844 5.36694 8.01637 5.30348L8.42822 4.48599C8.6211 4.10312 8.87008 3.75121 9.1669 3.44189L9.59123 2.99971C10.0076 2.56577 10.5058 2.21847 11.0569 1.97778L11.1538 1.93549C11.6656 1.71198 12.2181 1.59661 12.7766 1.59661V1.59661C13.2111 1.59661 13.6428 1.66645 14.0552 1.80347L14.1512 1.83536C14.7122 2.02177 15.2236 2.33331 15.6465 2.74642V2.74642C16.0774 3.16737 16.405 3.68245 16.6035 4.25124L16.7127 4.56427C16.8029 4.82273 16.873 5.08778 16.9223 5.35704L16.9848 5.69831M19.9222 8.45763L20.1726 8.04751C20.5514 7.42725 20.874 6.77439 21.1366 6.09673L21.4713 5.23312C21.486 5.19528 21.4976 5.15632 21.506 5.11662L21.61 4.62446C21.6555 4.40927 21.4913 4.20678 21.2714 4.20678V4.20678C21.1192 4.20678 20.9848 4.10733 20.9404 3.96175L20.8229 3.57697C20.7801 3.43702 20.6234 3.36732 20.4909 3.42933V3.42933C20.367 3.48729 20.2198 3.43045 20.167 3.30428L20.063 3.05563C19.983 2.8644 19.7714 2.76461 19.5729 2.82455V2.82455C19.3192 2.90121 19.0615 2.7171 19.0518 2.45219L19.0372 2.05237C19.0352 1.9973 19.0268 1.94265 19.0122 1.88952L18.8757 1.39296C18.8462 1.28558 18.7711 1.19654 18.6703 1.14935V1.14935C18.4902 1.0651 18.2756 1.13382 18.178 1.30701L17.8862 1.82466C17.8321 1.92058 17.7939 2.02462 17.7731 2.13274L17.5313 3.38644L16.9848 5.69831M9.81214 5.4V5.4C10.2507 5.5915 10.7461 5.60704 11.1957 5.4434L11.315 5.4M14.0474 5.4V5.4C14.5088 5.58314 15.0353 5.49754 15.4137 5.17627V5.17627M12.6812 4.65424L12.8226 5.01451C13.0011 5.46907 13.1304 5.94142 13.2083 6.42349L13.2756 6.84007C13.2892 6.92396 13.296 7.0088 13.296 7.09377V7.52144C13.296 7.64393 13.2501 7.76196 13.1674 7.85228V7.85228C13.0052 8.02931 12.7387 8.06272 12.5378 7.93117L12.3946 7.83732C12.2702 7.75586 12.1754 7.63647 12.1243 7.49688L11.7932 6.59322M10.0171 8.45763L10.2762 8.74047C10.5557 9.0457 10.8962 9.28897 11.2755 9.45462V9.45462C11.573 9.58455 11.8899 9.66471 12.2135 9.69188L12.3368 9.70223C12.5205 9.71767 12.7053 9.71767 12.889 9.70223V9.70223C13.2935 9.66827 13.6882 9.55997 14.0534 9.38279L14.1157 9.35254L14.1593 9.32404C14.583 9.04648 14.9602 8.70373 15.277 8.30847V8.30847" stroke="#525252"/>
</svg>
