<svg width="47" height="46" viewBox="0 0 47 46" fill="none" xmlns="http://www.w3.org/2000/svg">
<g clip-path="url(#clip0_360_239)">
<path d="M23.5058 0H23.4943C10.8126 0 0.50003 10.3155 0.50003 23C0.492155 27.8444 2.02564 32.5657 4.87865 36.4808L2.01228 45.0253L10.8529 42.1992C14.603 44.6871 19.0055 46.0096 23.5058 45.9999C36.1874 45.9999 46.5 35.6816 46.5 23C46.5 10.3184 36.1874 0 23.5058 0Z" fill="#e7a763"/>
<path d="M36.8889 32.4787C36.334 34.0455 34.1318 35.345 32.3752 35.7245C31.1734 35.9804 29.6036 36.1845 24.3194 33.9938C17.5603 31.1935 13.2075 24.3252 12.8683 23.8795C12.5434 23.4339 10.137 20.2427 10.137 16.9422C10.137 13.6417 11.8131 12.0345 12.4888 11.3445C13.0436 10.7782 13.9608 10.5194 14.8405 10.5194C15.1251 10.5194 15.381 10.5338 15.611 10.5453C16.2866 10.574 16.6259 10.6143 17.0715 11.6809C17.6264 13.0178 18.9776 16.3183 19.1386 16.6575C19.3025 16.9968 19.4664 17.4568 19.2364 17.9024C19.0208 18.3624 18.831 18.5665 18.4918 18.9575C18.1525 19.3485 17.8305 19.6475 17.4913 20.0673C17.1808 20.4324 16.83 20.8234 17.221 21.499C17.612 22.1603 18.9633 24.3654 20.9528 26.1364C23.5201 28.422 25.6016 29.1523 26.3463 29.4628C26.9011 29.6928 27.5624 29.6382 27.9678 29.2069C28.4824 28.652 29.1178 27.732 29.7647 26.8264C30.2246 26.1767 30.8054 26.0962 31.4149 26.3262C32.0359 26.5418 35.322 28.1662 35.9977 28.5025C36.6733 28.8418 37.1189 29.0028 37.2828 29.2874C37.4438 29.572 37.4438 30.9089 36.8889 32.4787Z" fill="#FAFAFA"/>
</g>
<defs>
<clipPath id="clip0_360_239">
<rect width="46" height="46" fill="white" transform="translate(0.5)"/>
</clipPath>
</defs>
</svg>
