<svg width="16" height="16" viewBox="0 0 16 16" fill="none" xmlns="http://www.w3.org/2000/svg">
<g clip-path="url(#clip0_284_60)">
<path d="M8.002 0H7.998C3.58701 0 1.04969e-05 3.588 1.04969e-05 7.99999C-0.0027286 9.685 0.530659 11.3272 1.52301 12.689L0.52601 15.661L3.60101 14.678C4.90538 15.5434 6.43668 16.0033 8.002 16C12.413 16 16 12.411 16 7.99999C16 3.589 12.413 0 8.002 0Z" fill="#4CAF50"/>
<path d="M12.657 11.2969C12.464 11.8419 11.698 12.2939 11.087 12.4259C10.669 12.5149 10.123 12.5859 8.285 11.8239C5.934 10.8499 4.42001 8.46094 4.30201 8.30594C4.18901 8.15094 3.35201 7.04094 3.35201 5.89294C3.35201 4.74494 3.93501 4.18594 4.17001 3.94594C4.36301 3.74894 4.682 3.65894 4.988 3.65894C5.087 3.65894 5.17601 3.66394 5.25601 3.66794C5.49101 3.67794 5.609 3.69194 5.764 4.06294C5.957 4.52794 6.427 5.67594 6.483 5.79394C6.54 5.91194 6.59701 6.07194 6.51701 6.22694C6.44201 6.38694 6.376 6.45794 6.258 6.59394C6.14 6.72994 6.028 6.83394 5.91 6.97994C5.802 7.10694 5.68 7.24294 5.816 7.47794C5.952 7.70794 6.422 8.47494 7.114 9.09094C8.007 9.88594 8.731 10.1399 8.99 10.2479C9.183 10.3279 9.413 10.3089 9.554 10.1589C9.733 9.96594 9.954 9.64594 10.179 9.33094C10.339 9.10494 10.541 9.07694 10.753 9.15694C10.969 9.23194 12.112 9.79694 12.347 9.91394C12.582 10.0319 12.737 10.0879 12.794 10.1869C12.85 10.2859 12.85 10.7509 12.657 11.2969Z" fill="#FAFAFA"/>
</g>
<defs>
<clipPath id="clip0_284_60">
<rect width="16" height="16" fill="white"/>
</clipPath>
</defs>
</svg>
